<mxfile host="Electron" modified="2024-03-07T06:17:23.754Z" agent="Mozilla/5.0 (Windows NT 10.0; Win64; x64) AppleWebKit/537.36 (KHTML, like Gecko) draw.io/23.1.5 Chrome/120.0.6099.109 Electron/28.1.0 Safari/537.36" etag="vy-dPE86Kc2LmLxYKqbN" version="23.1.5" type="device">
  <diagram name="Page-1" id="-_l5rzkQuVQaZZFS9Z8s">
    <mxGraphModel dx="4358" dy="2144" grid="0" gridSize="10" guides="1" tooltips="1" connect="1" arrows="1" fold="1" page="0" pageScale="1" pageWidth="850" pageHeight="1100" math="0" shadow="0">
      <root>
        <mxCell id="0" />
        <mxCell id="1" parent="0" />
        <mxCell id="JTAYTAqS8s9HP5UEAawi-116" value="" style="ellipse;whiteSpace=wrap;html=1;" vertex="1" parent="1">
          <mxGeometry x="-263" y="622" width="748" height="279" as="geometry" />
        </mxCell>
        <mxCell id="JTAYTAqS8s9HP5UEAawi-99" value="" style="ellipse;whiteSpace=wrap;html=1;fillColor=#fff2cc;strokeColor=#d6b656;" vertex="1" parent="1">
          <mxGeometry x="806" y="296" width="735" height="464" as="geometry" />
        </mxCell>
        <mxCell id="JTAYTAqS8s9HP5UEAawi-87" style="edgeStyle=none;curved=1;rounded=0;orthogonalLoop=1;jettySize=auto;html=1;fontSize=12;startSize=8;endSize=8;" edge="1" parent="1" source="JTAYTAqS8s9HP5UEAawi-86">
          <mxGeometry relative="1" as="geometry">
            <mxPoint x="780.3333333333335" y="554.6666666666667" as="targetPoint" />
          </mxGeometry>
        </mxCell>
        <mxCell id="JTAYTAqS8s9HP5UEAawi-86" value="" style="ellipse;whiteSpace=wrap;html=1;fillColor=#fff2cc;strokeColor=#d6b656;" vertex="1" parent="1">
          <mxGeometry x="-275" y="504" width="692" height="119" as="geometry" />
        </mxCell>
        <mxCell id="JTAYTAqS8s9HP5UEAawi-1" value="" style="shape=table;startSize=0;container=1;collapsible=0;childLayout=tableLayout;" vertex="1" parent="1">
          <mxGeometry x="-400" y="181" width="1200" height="40" as="geometry" />
        </mxCell>
        <mxCell id="JTAYTAqS8s9HP5UEAawi-2" value="" style="shape=tableRow;horizontal=0;startSize=0;swimlaneHead=0;swimlaneBody=0;strokeColor=inherit;top=0;left=0;bottom=0;right=0;collapsible=0;dropTarget=0;fillColor=none;points=[[0,0.5],[1,0.5]];portConstraint=eastwest;" vertex="1" parent="JTAYTAqS8s9HP5UEAawi-1">
          <mxGeometry width="1200" height="40" as="geometry" />
        </mxCell>
        <mxCell id="JTAYTAqS8s9HP5UEAawi-3" value="" style="shape=partialRectangle;html=1;whiteSpace=wrap;connectable=0;strokeColor=#000000;overflow=hidden;fillColor=#dae8fc;top=0;left=0;bottom=0;right=0;pointerEvents=1;strokeWidth=3;" vertex="1" parent="JTAYTAqS8s9HP5UEAawi-2">
          <mxGeometry width="60" height="40" as="geometry">
            <mxRectangle width="60" height="40" as="alternateBounds" />
          </mxGeometry>
        </mxCell>
        <mxCell id="JTAYTAqS8s9HP5UEAawi-4" value="" style="shape=partialRectangle;html=1;whiteSpace=wrap;connectable=0;strokeColor=#000000;overflow=hidden;fillColor=#dae8fc;top=0;left=0;bottom=0;right=0;pointerEvents=1;strokeWidth=3;" vertex="1" parent="JTAYTAqS8s9HP5UEAawi-2">
          <mxGeometry x="60" width="60" height="40" as="geometry">
            <mxRectangle width="60" height="40" as="alternateBounds" />
          </mxGeometry>
        </mxCell>
        <mxCell id="JTAYTAqS8s9HP5UEAawi-5" value="" style="shape=partialRectangle;html=1;whiteSpace=wrap;connectable=0;strokeColor=#000000;overflow=hidden;fillColor=#dae8fc;top=0;left=0;bottom=0;right=0;pointerEvents=1;strokeWidth=3;" vertex="1" parent="JTAYTAqS8s9HP5UEAawi-2">
          <mxGeometry x="120" width="60" height="40" as="geometry">
            <mxRectangle width="60" height="40" as="alternateBounds" />
          </mxGeometry>
        </mxCell>
        <mxCell id="JTAYTAqS8s9HP5UEAawi-6" value="" style="shape=partialRectangle;html=1;whiteSpace=wrap;connectable=0;strokeColor=#000000;overflow=hidden;fillColor=#dae8fc;top=0;left=0;bottom=0;right=0;pointerEvents=1;strokeWidth=3;" vertex="1" parent="JTAYTAqS8s9HP5UEAawi-2">
          <mxGeometry x="180" width="60" height="40" as="geometry">
            <mxRectangle width="60" height="40" as="alternateBounds" />
          </mxGeometry>
        </mxCell>
        <mxCell id="JTAYTAqS8s9HP5UEAawi-7" value="" style="shape=partialRectangle;html=1;whiteSpace=wrap;connectable=0;strokeColor=#d6b656;overflow=hidden;fillColor=#fff2cc;top=0;left=0;bottom=0;right=0;pointerEvents=1;" vertex="1" parent="JTAYTAqS8s9HP5UEAawi-2">
          <mxGeometry x="240" width="60" height="40" as="geometry">
            <mxRectangle width="60" height="40" as="alternateBounds" />
          </mxGeometry>
        </mxCell>
        <mxCell id="JTAYTAqS8s9HP5UEAawi-8" value="" style="shape=partialRectangle;html=1;whiteSpace=wrap;connectable=0;strokeColor=#d6b656;overflow=hidden;fillColor=#fff2cc;top=0;left=0;bottom=0;right=0;pointerEvents=1;" vertex="1" parent="JTAYTAqS8s9HP5UEAawi-2">
          <mxGeometry x="300" width="60" height="40" as="geometry">
            <mxRectangle width="60" height="40" as="alternateBounds" />
          </mxGeometry>
        </mxCell>
        <mxCell id="JTAYTAqS8s9HP5UEAawi-9" value="" style="shape=partialRectangle;html=1;whiteSpace=wrap;connectable=0;strokeColor=#d6b656;overflow=hidden;fillColor=#fff2cc;top=0;left=0;bottom=0;right=0;pointerEvents=1;" vertex="1" parent="JTAYTAqS8s9HP5UEAawi-2">
          <mxGeometry x="360" width="60" height="40" as="geometry">
            <mxRectangle width="60" height="40" as="alternateBounds" />
          </mxGeometry>
        </mxCell>
        <mxCell id="JTAYTAqS8s9HP5UEAawi-10" value="" style="shape=partialRectangle;html=1;whiteSpace=wrap;connectable=0;strokeColor=#d6b656;overflow=hidden;fillColor=#fff2cc;top=0;left=0;bottom=0;right=0;pointerEvents=1;" vertex="1" parent="JTAYTAqS8s9HP5UEAawi-2">
          <mxGeometry x="420" width="60" height="40" as="geometry">
            <mxRectangle width="60" height="40" as="alternateBounds" />
          </mxGeometry>
        </mxCell>
        <mxCell id="JTAYTAqS8s9HP5UEAawi-11" value="" style="shape=partialRectangle;html=1;whiteSpace=wrap;connectable=0;strokeColor=#9673a6;overflow=hidden;fillColor=#e1d5e7;top=0;left=0;bottom=0;right=0;pointerEvents=1;" vertex="1" parent="JTAYTAqS8s9HP5UEAawi-2">
          <mxGeometry x="480" width="60" height="40" as="geometry">
            <mxRectangle width="60" height="40" as="alternateBounds" />
          </mxGeometry>
        </mxCell>
        <mxCell id="JTAYTAqS8s9HP5UEAawi-12" value="" style="shape=partialRectangle;html=1;whiteSpace=wrap;connectable=0;strokeColor=#9673a6;overflow=hidden;fillColor=#e1d5e7;top=0;left=0;bottom=0;right=0;pointerEvents=1;" vertex="1" parent="JTAYTAqS8s9HP5UEAawi-2">
          <mxGeometry x="540" width="60" height="40" as="geometry">
            <mxRectangle width="60" height="40" as="alternateBounds" />
          </mxGeometry>
        </mxCell>
        <mxCell id="JTAYTAqS8s9HP5UEAawi-13" value="" style="shape=partialRectangle;html=1;whiteSpace=wrap;connectable=0;strokeColor=#9673a6;overflow=hidden;fillColor=#e1d5e7;top=0;left=0;bottom=0;right=0;pointerEvents=1;" vertex="1" parent="JTAYTAqS8s9HP5UEAawi-2">
          <mxGeometry x="600" width="60" height="40" as="geometry">
            <mxRectangle width="60" height="40" as="alternateBounds" />
          </mxGeometry>
        </mxCell>
        <mxCell id="JTAYTAqS8s9HP5UEAawi-14" value="" style="shape=partialRectangle;html=1;whiteSpace=wrap;connectable=0;strokeColor=#9673a6;overflow=hidden;fillColor=#e1d5e7;top=0;left=0;bottom=0;right=0;pointerEvents=1;" vertex="1" parent="JTAYTAqS8s9HP5UEAawi-2">
          <mxGeometry x="660" width="60" height="40" as="geometry">
            <mxRectangle width="60" height="40" as="alternateBounds" />
          </mxGeometry>
        </mxCell>
        <mxCell id="JTAYTAqS8s9HP5UEAawi-15" value="" style="shape=partialRectangle;html=1;whiteSpace=wrap;connectable=0;strokeColor=#82b366;overflow=hidden;fillColor=#d5e8d4;top=0;left=0;bottom=0;right=0;pointerEvents=1;" vertex="1" parent="JTAYTAqS8s9HP5UEAawi-2">
          <mxGeometry x="720" width="60" height="40" as="geometry">
            <mxRectangle width="60" height="40" as="alternateBounds" />
          </mxGeometry>
        </mxCell>
        <mxCell id="JTAYTAqS8s9HP5UEAawi-16" value="" style="shape=partialRectangle;html=1;whiteSpace=wrap;connectable=0;strokeColor=#82b366;overflow=hidden;fillColor=#d5e8d4;top=0;left=0;bottom=0;right=0;pointerEvents=1;" vertex="1" parent="JTAYTAqS8s9HP5UEAawi-2">
          <mxGeometry x="780" width="60" height="40" as="geometry">
            <mxRectangle width="60" height="40" as="alternateBounds" />
          </mxGeometry>
        </mxCell>
        <mxCell id="JTAYTAqS8s9HP5UEAawi-17" value="" style="shape=partialRectangle;html=1;whiteSpace=wrap;connectable=0;strokeColor=#82b366;overflow=hidden;fillColor=#d5e8d4;top=0;left=0;bottom=0;right=0;pointerEvents=1;" vertex="1" parent="JTAYTAqS8s9HP5UEAawi-2">
          <mxGeometry x="840" width="60" height="40" as="geometry">
            <mxRectangle width="60" height="40" as="alternateBounds" />
          </mxGeometry>
        </mxCell>
        <mxCell id="JTAYTAqS8s9HP5UEAawi-18" value="" style="shape=partialRectangle;html=1;whiteSpace=wrap;connectable=0;strokeColor=#82b366;overflow=hidden;fillColor=#d5e8d4;top=0;left=0;bottom=0;right=0;pointerEvents=1;" vertex="1" parent="JTAYTAqS8s9HP5UEAawi-2">
          <mxGeometry x="900" width="60" height="40" as="geometry">
            <mxRectangle width="60" height="40" as="alternateBounds" />
          </mxGeometry>
        </mxCell>
        <mxCell id="JTAYTAqS8s9HP5UEAawi-19" value="" style="shape=partialRectangle;html=1;whiteSpace=wrap;connectable=0;strokeColor=#b85450;overflow=hidden;fillColor=#f8cecc;top=0;left=0;bottom=0;right=0;pointerEvents=1;" vertex="1" parent="JTAYTAqS8s9HP5UEAawi-2">
          <mxGeometry x="960" width="60" height="40" as="geometry">
            <mxRectangle width="60" height="40" as="alternateBounds" />
          </mxGeometry>
        </mxCell>
        <mxCell id="JTAYTAqS8s9HP5UEAawi-20" value="" style="shape=partialRectangle;html=1;whiteSpace=wrap;connectable=0;strokeColor=#b85450;overflow=hidden;fillColor=#f8cecc;top=0;left=0;bottom=0;right=0;pointerEvents=1;" vertex="1" parent="JTAYTAqS8s9HP5UEAawi-2">
          <mxGeometry x="1020" width="60" height="40" as="geometry">
            <mxRectangle width="60" height="40" as="alternateBounds" />
          </mxGeometry>
        </mxCell>
        <mxCell id="JTAYTAqS8s9HP5UEAawi-21" value="" style="shape=partialRectangle;html=1;whiteSpace=wrap;connectable=0;strokeColor=#b85450;overflow=hidden;fillColor=#f8cecc;top=0;left=0;bottom=0;right=0;pointerEvents=1;" vertex="1" parent="JTAYTAqS8s9HP5UEAawi-2">
          <mxGeometry x="1080" width="60" height="40" as="geometry">
            <mxRectangle width="60" height="40" as="alternateBounds" />
          </mxGeometry>
        </mxCell>
        <mxCell id="JTAYTAqS8s9HP5UEAawi-22" value="" style="shape=partialRectangle;html=1;whiteSpace=wrap;connectable=0;strokeColor=#b85450;overflow=hidden;fillColor=#f8cecc;top=0;left=0;bottom=0;right=0;pointerEvents=1;" vertex="1" parent="JTAYTAqS8s9HP5UEAawi-2">
          <mxGeometry x="1140" width="60" height="40" as="geometry">
            <mxRectangle width="60" height="40" as="alternateBounds" />
          </mxGeometry>
        </mxCell>
        <mxCell id="JTAYTAqS8s9HP5UEAawi-23" value="104" style="rounded=1;whiteSpace=wrap;html=1;" vertex="1" parent="1">
          <mxGeometry x="-477" y="25" width="74" height="44" as="geometry" />
        </mxCell>
        <mxCell id="JTAYTAqS8s9HP5UEAawi-25" value="" style="endArrow=none;dashed=1;html=1;rounded=0;fontSize=12;startSize=8;endSize=8;entryX=0.881;entryY=0.961;entryDx=0;entryDy=0;entryPerimeter=0;exitX=0;exitY=0;exitDx=0;exitDy=0;" edge="1" parent="1" source="JTAYTAqS8s9HP5UEAawi-1" target="JTAYTAqS8s9HP5UEAawi-23">
          <mxGeometry width="50" height="50" relative="1" as="geometry">
            <mxPoint x="-222" y="171" as="sourcePoint" />
            <mxPoint x="-403" y="66" as="targetPoint" />
          </mxGeometry>
        </mxCell>
        <mxCell id="JTAYTAqS8s9HP5UEAawi-26" value="&lt;font style=&quot;&quot; color=&quot;#ff3333&quot; size=&quot;1&quot;&gt;&lt;span style=&quot;font-size: 12px;&quot;&gt;100&lt;/span&gt;&lt;/font&gt;" style="text;html=1;align=center;verticalAlign=middle;resizable=0;points=[];autosize=1;strokeColor=none;fillColor=none;fontSize=16;fontStyle=1" vertex="1" parent="1">
          <mxGeometry x="-420" y="227.5" width="38" height="31" as="geometry" />
        </mxCell>
        <mxCell id="JTAYTAqS8s9HP5UEAawi-27" value="&lt;font style=&quot;&quot; color=&quot;#ff3333&quot; size=&quot;1&quot;&gt;&lt;span style=&quot;font-size: 12px;&quot;&gt;101&lt;/span&gt;&lt;/font&gt;" style="text;html=1;align=center;verticalAlign=middle;resizable=0;points=[];autosize=1;strokeColor=none;fillColor=none;fontSize=16;fontStyle=1" vertex="1" parent="1">
          <mxGeometry x="-360" y="227.5" width="38" height="31" as="geometry" />
        </mxCell>
        <mxCell id="JTAYTAqS8s9HP5UEAawi-28" value="&lt;font style=&quot;&quot; color=&quot;#ff3333&quot; size=&quot;1&quot;&gt;&lt;span style=&quot;font-size: 12px;&quot;&gt;102&lt;/span&gt;&lt;/font&gt;" style="text;html=1;align=center;verticalAlign=middle;resizable=0;points=[];autosize=1;strokeColor=none;fillColor=none;fontSize=16;fontStyle=1" vertex="1" parent="1">
          <mxGeometry x="-299" y="227.5" width="38" height="31" as="geometry" />
        </mxCell>
        <mxCell id="JTAYTAqS8s9HP5UEAawi-30" value="&lt;font style=&quot;&quot; color=&quot;#ff3333&quot; size=&quot;1&quot;&gt;&lt;span style=&quot;font-size: 12px;&quot;&gt;103&lt;/span&gt;&lt;/font&gt;" style="text;html=1;align=center;verticalAlign=middle;resizable=0;points=[];autosize=1;strokeColor=none;fillColor=none;fontSize=16;fontStyle=1" vertex="1" parent="1">
          <mxGeometry x="-234" y="227.5" width="38" height="31" as="geometry" />
        </mxCell>
        <mxCell id="JTAYTAqS8s9HP5UEAawi-31" value="&lt;font style=&quot;&quot; color=&quot;#ff3333&quot; size=&quot;1&quot;&gt;&lt;span style=&quot;font-size: 12px;&quot;&gt;104&lt;/span&gt;&lt;/font&gt;" style="text;html=1;align=center;verticalAlign=middle;resizable=0;points=[];autosize=1;strokeColor=none;fillColor=none;fontSize=16;fontStyle=1" vertex="1" parent="1">
          <mxGeometry x="-174" y="227.5" width="38" height="31" as="geometry" />
        </mxCell>
        <mxCell id="JTAYTAqS8s9HP5UEAawi-32" value="&lt;font style=&quot;&quot; color=&quot;#ff3333&quot; size=&quot;1&quot;&gt;&lt;span style=&quot;font-size: 12px;&quot;&gt;105&lt;/span&gt;&lt;/font&gt;" style="text;html=1;align=center;verticalAlign=middle;resizable=0;points=[];autosize=1;strokeColor=none;fillColor=none;fontSize=16;fontStyle=1" vertex="1" parent="1">
          <mxGeometry x="-113" y="227.5" width="38" height="31" as="geometry" />
        </mxCell>
        <mxCell id="JTAYTAqS8s9HP5UEAawi-35" value="&lt;font style=&quot;&quot; color=&quot;#ff3333&quot; size=&quot;1&quot;&gt;&lt;span style=&quot;font-size: 12px;&quot;&gt;106&lt;/span&gt;&lt;/font&gt;" style="text;html=1;align=center;verticalAlign=middle;resizable=0;points=[];autosize=1;strokeColor=none;fillColor=none;fontSize=16;fontStyle=1" vertex="1" parent="1">
          <mxGeometry x="-55" y="227.5" width="38" height="31" as="geometry" />
        </mxCell>
        <mxCell id="JTAYTAqS8s9HP5UEAawi-36" value="&lt;font style=&quot;&quot; color=&quot;#ff3333&quot; size=&quot;1&quot;&gt;&lt;span style=&quot;font-size: 12px;&quot;&gt;107&lt;/span&gt;&lt;/font&gt;" style="text;html=1;align=center;verticalAlign=middle;resizable=0;points=[];autosize=1;strokeColor=none;fillColor=none;fontSize=16;fontStyle=1" vertex="1" parent="1">
          <mxGeometry x="5" y="227.5" width="38" height="31" as="geometry" />
        </mxCell>
        <mxCell id="JTAYTAqS8s9HP5UEAawi-37" value="&lt;font style=&quot;&quot; color=&quot;#ff3333&quot; size=&quot;1&quot;&gt;&lt;span style=&quot;font-size: 12px;&quot;&gt;108&lt;/span&gt;&lt;/font&gt;" style="text;html=1;align=center;verticalAlign=middle;resizable=0;points=[];autosize=1;strokeColor=none;fillColor=none;fontSize=16;fontStyle=1" vertex="1" parent="1">
          <mxGeometry x="66" y="227.5" width="38" height="31" as="geometry" />
        </mxCell>
        <mxCell id="JTAYTAqS8s9HP5UEAawi-38" value="&lt;font style=&quot;&quot; color=&quot;#ff3333&quot; size=&quot;1&quot;&gt;&lt;span style=&quot;font-size: 12px;&quot;&gt;109&lt;/span&gt;&lt;/font&gt;" style="text;html=1;align=center;verticalAlign=middle;resizable=0;points=[];autosize=1;strokeColor=none;fillColor=none;fontSize=16;fontStyle=1" vertex="1" parent="1">
          <mxGeometry x="131" y="227.5" width="38" height="31" as="geometry" />
        </mxCell>
        <mxCell id="JTAYTAqS8s9HP5UEAawi-39" value="&lt;font style=&quot;&quot; color=&quot;#ff3333&quot; size=&quot;1&quot;&gt;&lt;span style=&quot;font-size: 12px;&quot;&gt;110&lt;/span&gt;&lt;/font&gt;" style="text;html=1;align=center;verticalAlign=middle;resizable=0;points=[];autosize=1;strokeColor=none;fillColor=none;fontSize=16;fontStyle=1" vertex="1" parent="1">
          <mxGeometry x="192" y="227.5" width="37" height="31" as="geometry" />
        </mxCell>
        <mxCell id="JTAYTAqS8s9HP5UEAawi-40" value="&lt;font style=&quot;&quot; color=&quot;#ff3333&quot; size=&quot;1&quot;&gt;&lt;span style=&quot;font-size: 12px;&quot;&gt;111&lt;/span&gt;&lt;/font&gt;" style="text;html=1;align=center;verticalAlign=middle;resizable=0;points=[];autosize=1;strokeColor=none;fillColor=none;fontSize=16;fontStyle=1" vertex="1" parent="1">
          <mxGeometry x="253" y="227.5" width="37" height="31" as="geometry" />
        </mxCell>
        <mxCell id="JTAYTAqS8s9HP5UEAawi-41" value="&lt;font style=&quot;&quot; color=&quot;#ff3333&quot; size=&quot;1&quot;&gt;&lt;span style=&quot;font-size: 12px;&quot;&gt;112&lt;/span&gt;&lt;/font&gt;" style="text;html=1;align=center;verticalAlign=middle;resizable=0;points=[];autosize=1;strokeColor=none;fillColor=none;fontSize=16;fontStyle=1" vertex="1" parent="1">
          <mxGeometry x="306" y="227.5" width="37" height="31" as="geometry" />
        </mxCell>
        <mxCell id="JTAYTAqS8s9HP5UEAawi-42" value="&lt;font style=&quot;&quot; color=&quot;#ff3333&quot; size=&quot;1&quot;&gt;&lt;span style=&quot;font-size: 12px;&quot;&gt;113&lt;/span&gt;&lt;/font&gt;" style="text;html=1;align=center;verticalAlign=middle;resizable=0;points=[];autosize=1;strokeColor=none;fillColor=none;fontSize=16;fontStyle=1" vertex="1" parent="1">
          <mxGeometry x="366" y="227.5" width="37" height="31" as="geometry" />
        </mxCell>
        <mxCell id="JTAYTAqS8s9HP5UEAawi-43" value="&lt;font style=&quot;&quot; color=&quot;#ff3333&quot; size=&quot;1&quot;&gt;&lt;span style=&quot;font-size: 12px;&quot;&gt;114&lt;/span&gt;&lt;/font&gt;" style="text;html=1;align=center;verticalAlign=middle;resizable=0;points=[];autosize=1;strokeColor=none;fillColor=none;fontSize=16;fontStyle=1" vertex="1" parent="1">
          <mxGeometry x="427" y="227.5" width="37" height="31" as="geometry" />
        </mxCell>
        <mxCell id="JTAYTAqS8s9HP5UEAawi-44" value="&lt;font style=&quot;&quot; color=&quot;#ff3333&quot; size=&quot;1&quot;&gt;&lt;span style=&quot;font-size: 12px;&quot;&gt;115&lt;/span&gt;&lt;/font&gt;" style="text;html=1;align=center;verticalAlign=middle;resizable=0;points=[];autosize=1;strokeColor=none;fillColor=none;fontSize=16;fontStyle=1" vertex="1" parent="1">
          <mxGeometry x="492" y="227.5" width="37" height="31" as="geometry" />
        </mxCell>
        <mxCell id="JTAYTAqS8s9HP5UEAawi-45" value="&lt;font style=&quot;&quot; color=&quot;#ff3333&quot; size=&quot;1&quot;&gt;&lt;span style=&quot;font-size: 12px;&quot;&gt;116&lt;/span&gt;&lt;/font&gt;" style="text;html=1;align=center;verticalAlign=middle;resizable=0;points=[];autosize=1;strokeColor=none;fillColor=none;fontSize=16;fontStyle=1" vertex="1" parent="1">
          <mxGeometry x="552" y="227.5" width="37" height="31" as="geometry" />
        </mxCell>
        <mxCell id="JTAYTAqS8s9HP5UEAawi-46" value="&lt;font style=&quot;&quot; color=&quot;#ff3333&quot; size=&quot;1&quot;&gt;&lt;span style=&quot;font-size: 12px;&quot;&gt;117&lt;/span&gt;&lt;/font&gt;" style="text;html=1;align=center;verticalAlign=middle;resizable=0;points=[];autosize=1;strokeColor=none;fillColor=none;fontSize=16;fontStyle=1" vertex="1" parent="1">
          <mxGeometry x="613" y="227.5" width="37" height="31" as="geometry" />
        </mxCell>
        <mxCell id="JTAYTAqS8s9HP5UEAawi-47" value="&lt;font style=&quot;&quot; color=&quot;#ff3333&quot; size=&quot;1&quot;&gt;&lt;span style=&quot;font-size: 12px;&quot;&gt;118&lt;/span&gt;&lt;/font&gt;" style="text;html=1;align=center;verticalAlign=middle;resizable=0;points=[];autosize=1;strokeColor=none;fillColor=none;fontSize=16;fontStyle=1" vertex="1" parent="1">
          <mxGeometry x="662" y="227.5" width="37" height="31" as="geometry" />
        </mxCell>
        <mxCell id="JTAYTAqS8s9HP5UEAawi-48" value="&lt;font style=&quot;&quot; color=&quot;#ff3333&quot; size=&quot;1&quot;&gt;&lt;span style=&quot;font-size: 12px;&quot;&gt;119&lt;/span&gt;&lt;/font&gt;" style="text;html=1;align=center;verticalAlign=middle;resizable=0;points=[];autosize=1;strokeColor=none;fillColor=none;fontSize=16;fontStyle=1" vertex="1" parent="1">
          <mxGeometry x="723" y="227.5" width="37" height="31" as="geometry" />
        </mxCell>
        <mxCell id="JTAYTAqS8s9HP5UEAawi-49" value="int *p" style="text;html=1;align=center;verticalAlign=middle;resizable=0;points=[];autosize=1;strokeColor=none;fillColor=none;fontSize=16;" vertex="1" parent="1">
          <mxGeometry x="-438.5" y="-38.5" width="54" height="31" as="geometry" />
        </mxCell>
        <mxCell id="JTAYTAqS8s9HP5UEAawi-50" value="" style="endArrow=none;dashed=1;html=1;rounded=0;fontSize=12;startSize=8;endSize=8;entryX=1;entryY=1;entryDx=0;entryDy=0;exitX=0.196;exitY=-0.016;exitDx=0;exitDy=0;exitPerimeter=0;" edge="1" parent="1" source="JTAYTAqS8s9HP5UEAawi-1" target="JTAYTAqS8s9HP5UEAawi-23">
          <mxGeometry width="50" height="50" relative="1" as="geometry">
            <mxPoint x="24" y="196" as="sourcePoint" />
            <mxPoint x="74" y="146" as="targetPoint" />
          </mxGeometry>
        </mxCell>
        <mxCell id="JTAYTAqS8s9HP5UEAawi-51" value="" style="endArrow=none;dashed=1;html=1;rounded=0;fontSize=12;startSize=8;endSize=8;entryX=1;entryY=1;entryDx=0;entryDy=0;" edge="1" parent="1" target="JTAYTAqS8s9HP5UEAawi-23">
          <mxGeometry width="50" height="50" relative="1" as="geometry">
            <mxPoint x="77" y="178" as="sourcePoint" />
            <mxPoint x="-393" y="79" as="targetPoint" />
          </mxGeometry>
        </mxCell>
        <mxCell id="JTAYTAqS8s9HP5UEAawi-54" value="10" style="text;html=1;align=center;verticalAlign=middle;resizable=0;points=[];autosize=1;strokeColor=none;fillColor=none;fontSize=16;fontStyle=1" vertex="1" parent="1">
          <mxGeometry x="-332" y="148" width="36" height="31" as="geometry" />
        </mxCell>
        <mxCell id="JTAYTAqS8s9HP5UEAawi-61" value="" style="rounded=0;whiteSpace=wrap;html=1;" vertex="1" parent="1">
          <mxGeometry x="250" y="324" width="99" height="52.5" as="geometry" />
        </mxCell>
        <mxCell id="JTAYTAqS8s9HP5UEAawi-62" value="" style="rounded=0;whiteSpace=wrap;html=1;" vertex="1" parent="1">
          <mxGeometry x="-171" y="329.5" width="99" height="52.5" as="geometry" />
        </mxCell>
        <mxCell id="JTAYTAqS8s9HP5UEAawi-63" style="edgeStyle=none;curved=1;rounded=0;orthogonalLoop=1;jettySize=auto;html=1;fontSize=12;startSize=8;endSize=8;" edge="1" parent="1">
          <mxGeometry relative="1" as="geometry">
            <mxPoint x="244.83333333333348" y="352.9999999999998" as="targetPoint" />
            <mxPoint x="-68" y="352.5" as="sourcePoint" />
          </mxGeometry>
        </mxCell>
        <mxCell id="JTAYTAqS8s9HP5UEAawi-64" value="x=*ptr++" style="text;html=1;align=center;verticalAlign=middle;resizable=0;points=[];autosize=1;strokeColor=none;fillColor=none;fontSize=16;" vertex="1" parent="1">
          <mxGeometry x="-157" y="337.5" width="79" height="31" as="geometry" />
        </mxCell>
        <mxCell id="JTAYTAqS8s9HP5UEAawi-65" value="x=*ptr;&lt;br&gt;ptr=ptr+1;" style="text;html=1;align=center;verticalAlign=middle;resizable=0;points=[];autosize=1;strokeColor=none;fillColor=none;fontSize=16;" vertex="1" parent="1">
          <mxGeometry x="256" y="324" width="87" height="50" as="geometry" />
        </mxCell>
        <mxCell id="JTAYTAqS8s9HP5UEAawi-71" value="" style="rounded=0;whiteSpace=wrap;html=1;" vertex="1" parent="1">
          <mxGeometry x="254" y="416" width="99" height="52.5" as="geometry" />
        </mxCell>
        <mxCell id="JTAYTAqS8s9HP5UEAawi-72" value="" style="rounded=0;whiteSpace=wrap;html=1;" vertex="1" parent="1">
          <mxGeometry x="-167" y="421.5" width="99" height="52.5" as="geometry" />
        </mxCell>
        <mxCell id="JTAYTAqS8s9HP5UEAawi-73" style="edgeStyle=none;curved=1;rounded=0;orthogonalLoop=1;jettySize=auto;html=1;fontSize=12;startSize=8;endSize=8;" edge="1" parent="1">
          <mxGeometry relative="1" as="geometry">
            <mxPoint x="248.83333333333348" y="444.9999999999998" as="targetPoint" />
            <mxPoint x="-64" y="444.5" as="sourcePoint" />
          </mxGeometry>
        </mxCell>
        <mxCell id="JTAYTAqS8s9HP5UEAawi-74" value="x=*++ptr" style="text;html=1;align=center;verticalAlign=middle;resizable=0;points=[];autosize=1;strokeColor=none;fillColor=none;fontSize=16;" vertex="1" parent="1">
          <mxGeometry x="-153" y="429.5" width="79" height="31" as="geometry" />
        </mxCell>
        <mxCell id="JTAYTAqS8s9HP5UEAawi-75" value="ptr=ptr+1;&lt;br&gt;x=*ptr;" style="text;html=1;align=center;verticalAlign=middle;resizable=0;points=[];autosize=1;strokeColor=none;fillColor=none;fontSize=16;" vertex="1" parent="1">
          <mxGeometry x="260" y="416" width="87" height="50" as="geometry" />
        </mxCell>
        <mxCell id="JTAYTAqS8s9HP5UEAawi-76" value="" style="rounded=0;whiteSpace=wrap;html=1;" vertex="1" parent="1">
          <mxGeometry x="250" y="537" width="99" height="52.5" as="geometry" />
        </mxCell>
        <mxCell id="JTAYTAqS8s9HP5UEAawi-77" value="" style="rounded=0;whiteSpace=wrap;html=1;" vertex="1" parent="1">
          <mxGeometry x="-171" y="542.5" width="99" height="52.5" as="geometry" />
        </mxCell>
        <mxCell id="JTAYTAqS8s9HP5UEAawi-78" style="edgeStyle=none;curved=1;rounded=0;orthogonalLoop=1;jettySize=auto;html=1;fontSize=12;startSize=8;endSize=8;" edge="1" parent="1">
          <mxGeometry relative="1" as="geometry">
            <mxPoint x="244.83333333333348" y="565.9999999999998" as="targetPoint" />
            <mxPoint x="-68" y="565.5" as="sourcePoint" />
          </mxGeometry>
        </mxCell>
        <mxCell id="JTAYTAqS8s9HP5UEAawi-79" value="x=(*ptr)++" style="text;html=1;align=center;verticalAlign=middle;resizable=0;points=[];autosize=1;strokeColor=none;fillColor=none;fontSize=16;" vertex="1" parent="1">
          <mxGeometry x="-162" y="550.5" width="90" height="31" as="geometry" />
        </mxCell>
        <mxCell id="JTAYTAqS8s9HP5UEAawi-80" value="x=*ptr;&lt;br&gt;*ptr=*ptr+1;" style="text;html=1;align=center;verticalAlign=middle;resizable=0;points=[];autosize=1;strokeColor=none;fillColor=none;fontSize=16;" vertex="1" parent="1">
          <mxGeometry x="250" y="537" width="100" height="50" as="geometry" />
        </mxCell>
        <mxCell id="JTAYTAqS8s9HP5UEAawi-81" value="" style="rounded=0;whiteSpace=wrap;html=1;" vertex="1" parent="1">
          <mxGeometry x="286" y="665" width="99" height="52.5" as="geometry" />
        </mxCell>
        <mxCell id="JTAYTAqS8s9HP5UEAawi-100" style="edgeStyle=none;curved=1;rounded=0;orthogonalLoop=1;jettySize=auto;html=1;fontSize=12;startSize=8;endSize=8;" edge="1" parent="1">
          <mxGeometry relative="1" as="geometry">
            <mxPoint x="-85.5" y="819.2857142857142" as="targetPoint" />
            <mxPoint x="-85.5" y="731" as="sourcePoint" />
          </mxGeometry>
        </mxCell>
        <mxCell id="JTAYTAqS8s9HP5UEAawi-82" value="" style="rounded=0;whiteSpace=wrap;html=1;" vertex="1" parent="1">
          <mxGeometry x="-136" y="675.75" width="99" height="52.5" as="geometry" />
        </mxCell>
        <mxCell id="JTAYTAqS8s9HP5UEAawi-83" style="edgeStyle=none;curved=1;rounded=0;orthogonalLoop=1;jettySize=auto;html=1;fontSize=12;startSize=8;endSize=8;" edge="1" parent="1">
          <mxGeometry relative="1" as="geometry">
            <mxPoint x="280.8333333333335" y="701.9999999999998" as="targetPoint" />
            <mxPoint x="-32" y="701.5" as="sourcePoint" />
          </mxGeometry>
        </mxCell>
        <mxCell id="JTAYTAqS8s9HP5UEAawi-84" value="x=++*ptr" style="text;html=1;align=center;verticalAlign=middle;resizable=0;points=[];autosize=1;strokeColor=none;fillColor=none;fontSize=16;" vertex="1" parent="1">
          <mxGeometry x="-121" y="686.5" width="79" height="31" as="geometry" />
        </mxCell>
        <mxCell id="JTAYTAqS8s9HP5UEAawi-85" value="*ptr=*ptr+1;&lt;br&gt;x=*ptr;" style="text;html=1;align=center;verticalAlign=middle;resizable=0;points=[];autosize=1;strokeColor=none;fillColor=none;fontSize=16;" vertex="1" parent="1">
          <mxGeometry x="286" y="673" width="100" height="50" as="geometry" />
        </mxCell>
        <mxCell id="JTAYTAqS8s9HP5UEAawi-88" value="" style="shape=table;startSize=0;container=1;collapsible=0;childLayout=tableLayout;" vertex="1" parent="1">
          <mxGeometry x="1208" y="407" width="244" height="71" as="geometry" />
        </mxCell>
        <mxCell id="JTAYTAqS8s9HP5UEAawi-89" value="" style="shape=tableRow;horizontal=0;startSize=0;swimlaneHead=0;swimlaneBody=0;strokeColor=inherit;top=0;left=0;bottom=0;right=0;collapsible=0;dropTarget=0;fillColor=none;points=[[0,0.5],[1,0.5]];portConstraint=eastwest;" vertex="1" parent="JTAYTAqS8s9HP5UEAawi-88">
          <mxGeometry width="244" height="71" as="geometry" />
        </mxCell>
        <mxCell id="JTAYTAqS8s9HP5UEAawi-90" value="&lt;b&gt;&lt;font style=&quot;font-size: 22px;&quot;&gt;126&lt;/font&gt;&lt;/b&gt;" style="shape=partialRectangle;html=1;whiteSpace=wrap;connectable=0;strokeColor=inherit;overflow=hidden;fillColor=none;top=0;left=0;bottom=0;right=0;pointerEvents=1;" vertex="1" parent="JTAYTAqS8s9HP5UEAawi-89">
          <mxGeometry width="122" height="71" as="geometry">
            <mxRectangle width="122" height="71" as="alternateBounds" />
          </mxGeometry>
        </mxCell>
        <mxCell id="JTAYTAqS8s9HP5UEAawi-91" value="&lt;b&gt;&lt;font style=&quot;font-size: 22px;&quot;&gt;136&lt;/font&gt;&lt;/b&gt;" style="shape=partialRectangle;html=1;whiteSpace=wrap;connectable=0;strokeColor=inherit;overflow=hidden;fillColor=none;top=0;left=0;bottom=0;right=0;pointerEvents=1;" vertex="1" parent="JTAYTAqS8s9HP5UEAawi-89">
          <mxGeometry x="122" width="122" height="71" as="geometry">
            <mxRectangle width="122" height="71" as="alternateBounds" />
          </mxGeometry>
        </mxCell>
        <mxCell id="JTAYTAqS8s9HP5UEAawi-93" style="edgeStyle=none;curved=1;rounded=0;orthogonalLoop=1;jettySize=auto;html=1;entryX=0;entryY=0.5;entryDx=0;entryDy=0;fontSize=12;startSize=8;endSize=8;" edge="1" parent="1" source="JTAYTAqS8s9HP5UEAawi-92" target="JTAYTAqS8s9HP5UEAawi-89">
          <mxGeometry relative="1" as="geometry" />
        </mxCell>
        <mxCell id="JTAYTAqS8s9HP5UEAawi-92" value="100" style="rounded=1;whiteSpace=wrap;html=1;" vertex="1" parent="1">
          <mxGeometry x="876" y="508" width="120" height="60" as="geometry" />
        </mxCell>
        <mxCell id="JTAYTAqS8s9HP5UEAawi-94" value="*ptr" style="text;html=1;align=center;verticalAlign=middle;resizable=0;points=[];autosize=1;strokeColor=none;fillColor=none;fontSize=16;" vertex="1" parent="1">
          <mxGeometry x="892.5" y="423.5" width="43" height="31" as="geometry" />
        </mxCell>
        <mxCell id="JTAYTAqS8s9HP5UEAawi-95" value="&lt;b&gt;&lt;font color=&quot;#ff0000&quot;&gt;100&lt;/font&gt;&lt;/b&gt;" style="text;html=1;align=center;verticalAlign=middle;resizable=0;points=[];autosize=1;strokeColor=none;fillColor=none;fontSize=16;" vertex="1" parent="1">
          <mxGeometry x="1186.5" y="489.5" width="45" height="31" as="geometry" />
        </mxCell>
        <mxCell id="JTAYTAqS8s9HP5UEAawi-96" value="&lt;b&gt;&lt;font color=&quot;#ff0000&quot;&gt;104&lt;/font&gt;&lt;/b&gt;" style="text;html=1;align=center;verticalAlign=middle;resizable=0;points=[];autosize=1;strokeColor=none;fillColor=none;fontSize=16;" vertex="1" parent="1">
          <mxGeometry x="1307.5" y="489.5" width="45" height="31" as="geometry" />
        </mxCell>
        <mxCell id="JTAYTAqS8s9HP5UEAawi-97" value="125" style="rounded=0;whiteSpace=wrap;html=1;" vertex="1" parent="1">
          <mxGeometry x="1107" y="613" width="120" height="60" as="geometry" />
        </mxCell>
        <mxCell id="JTAYTAqS8s9HP5UEAawi-98" value="" style="endArrow=classic;html=1;rounded=0;fontSize=12;startSize=8;endSize=8;entryX=0.544;entryY=0.01;entryDx=0;entryDy=0;entryPerimeter=0;exitX=0.191;exitY=1.002;exitDx=0;exitDy=0;exitPerimeter=0;" edge="1" parent="1" source="JTAYTAqS8s9HP5UEAawi-89" target="JTAYTAqS8s9HP5UEAawi-97">
          <mxGeometry width="50" height="50" relative="1" as="geometry">
            <mxPoint x="1026" y="589" as="sourcePoint" />
            <mxPoint x="1076" y="539" as="targetPoint" />
            <Array as="points">
              <mxPoint x="1233" y="512" />
            </Array>
          </mxGeometry>
        </mxCell>
        <mxCell id="JTAYTAqS8s9HP5UEAawi-101" value="x=(++(*ptr));" style="rounded=0;whiteSpace=wrap;html=1;" vertex="1" parent="1">
          <mxGeometry x="-131" y="823" width="99" height="52.5" as="geometry" />
        </mxCell>
        <mxCell id="JTAYTAqS8s9HP5UEAawi-102" value="" style="ellipse;whiteSpace=wrap;html=1;fillColor=#fff2cc;strokeColor=#d6b656;" vertex="1" parent="1">
          <mxGeometry x="264" y="865" width="735" height="464" as="geometry" />
        </mxCell>
        <mxCell id="JTAYTAqS8s9HP5UEAawi-103" value="" style="shape=table;startSize=0;container=1;collapsible=0;childLayout=tableLayout;" vertex="1" parent="1">
          <mxGeometry x="666" y="976" width="244" height="71" as="geometry" />
        </mxCell>
        <mxCell id="JTAYTAqS8s9HP5UEAawi-104" value="" style="shape=tableRow;horizontal=0;startSize=0;swimlaneHead=0;swimlaneBody=0;strokeColor=inherit;top=0;left=0;bottom=0;right=0;collapsible=0;dropTarget=0;fillColor=none;points=[[0,0.5],[1,0.5]];portConstraint=eastwest;" vertex="1" parent="JTAYTAqS8s9HP5UEAawi-103">
          <mxGeometry width="244" height="71" as="geometry" />
        </mxCell>
        <mxCell id="JTAYTAqS8s9HP5UEAawi-105" value="&lt;b&gt;&lt;font style=&quot;font-size: 22px;&quot;&gt;126&lt;/font&gt;&lt;/b&gt;" style="shape=partialRectangle;html=1;whiteSpace=wrap;connectable=0;strokeColor=inherit;overflow=hidden;fillColor=none;top=0;left=0;bottom=0;right=0;pointerEvents=1;" vertex="1" parent="JTAYTAqS8s9HP5UEAawi-104">
          <mxGeometry width="122" height="71" as="geometry">
            <mxRectangle width="122" height="71" as="alternateBounds" />
          </mxGeometry>
        </mxCell>
        <mxCell id="JTAYTAqS8s9HP5UEAawi-106" value="&lt;b&gt;&lt;font style=&quot;font-size: 22px;&quot;&gt;136&lt;/font&gt;&lt;/b&gt;" style="shape=partialRectangle;html=1;whiteSpace=wrap;connectable=0;strokeColor=inherit;overflow=hidden;fillColor=none;top=0;left=0;bottom=0;right=0;pointerEvents=1;" vertex="1" parent="JTAYTAqS8s9HP5UEAawi-104">
          <mxGeometry x="122" width="122" height="71" as="geometry">
            <mxRectangle width="122" height="71" as="alternateBounds" />
          </mxGeometry>
        </mxCell>
        <mxCell id="JTAYTAqS8s9HP5UEAawi-107" style="edgeStyle=none;curved=1;rounded=0;orthogonalLoop=1;jettySize=auto;html=1;entryX=0;entryY=0.5;entryDx=0;entryDy=0;fontSize=12;startSize=8;endSize=8;" edge="1" parent="1" source="JTAYTAqS8s9HP5UEAawi-108" target="JTAYTAqS8s9HP5UEAawi-104">
          <mxGeometry relative="1" as="geometry" />
        </mxCell>
        <mxCell id="JTAYTAqS8s9HP5UEAawi-108" value="100" style="rounded=1;whiteSpace=wrap;html=1;" vertex="1" parent="1">
          <mxGeometry x="334" y="1077" width="120" height="60" as="geometry" />
        </mxCell>
        <mxCell id="JTAYTAqS8s9HP5UEAawi-109" value="*ptr" style="text;html=1;align=center;verticalAlign=middle;resizable=0;points=[];autosize=1;strokeColor=none;fillColor=none;fontSize=16;" vertex="1" parent="1">
          <mxGeometry x="350.5" y="992.5" width="43" height="31" as="geometry" />
        </mxCell>
        <mxCell id="JTAYTAqS8s9HP5UEAawi-110" value="&lt;b&gt;&lt;font color=&quot;#ff0000&quot;&gt;100&lt;/font&gt;&lt;/b&gt;" style="text;html=1;align=center;verticalAlign=middle;resizable=0;points=[];autosize=1;strokeColor=none;fillColor=none;fontSize=16;" vertex="1" parent="1">
          <mxGeometry x="644.5" y="1058.5" width="45" height="31" as="geometry" />
        </mxCell>
        <mxCell id="JTAYTAqS8s9HP5UEAawi-111" value="&lt;b&gt;&lt;font color=&quot;#ff0000&quot;&gt;104&lt;/font&gt;&lt;/b&gt;" style="text;html=1;align=center;verticalAlign=middle;resizable=0;points=[];autosize=1;strokeColor=none;fillColor=none;fontSize=16;" vertex="1" parent="1">
          <mxGeometry x="765.5" y="1058.5" width="45" height="31" as="geometry" />
        </mxCell>
        <mxCell id="JTAYTAqS8s9HP5UEAawi-112" value="&lt;font style=&quot;font-size: 21px;&quot;&gt;&lt;b&gt;126&lt;/b&gt;&lt;/font&gt;" style="rounded=0;whiteSpace=wrap;html=1;" vertex="1" parent="1">
          <mxGeometry x="565" y="1182" width="120" height="60" as="geometry" />
        </mxCell>
        <mxCell id="JTAYTAqS8s9HP5UEAawi-113" value="" style="endArrow=classic;html=1;rounded=0;fontSize=12;startSize=8;endSize=8;entryX=0.544;entryY=0.01;entryDx=0;entryDy=0;entryPerimeter=0;exitX=0.191;exitY=1.002;exitDx=0;exitDy=0;exitPerimeter=0;" edge="1" parent="1" source="JTAYTAqS8s9HP5UEAawi-104" target="JTAYTAqS8s9HP5UEAawi-112">
          <mxGeometry width="50" height="50" relative="1" as="geometry">
            <mxPoint x="484" y="1158" as="sourcePoint" />
            <mxPoint x="534" y="1108" as="targetPoint" />
            <Array as="points">
              <mxPoint x="691" y="1081" />
            </Array>
          </mxGeometry>
        </mxCell>
        <mxCell id="JTAYTAqS8s9HP5UEAawi-117" value="" style="endArrow=classic;html=1;rounded=0;fontSize=12;startSize=8;endSize=8;exitX=0.701;exitY=0.954;exitDx=0;exitDy=0;exitPerimeter=0;" edge="1" parent="1" source="JTAYTAqS8s9HP5UEAawi-116" target="JTAYTAqS8s9HP5UEAawi-102">
          <mxGeometry width="50" height="50" relative="1" as="geometry">
            <mxPoint x="798" y="705" as="sourcePoint" />
            <mxPoint x="848" y="655" as="targetPoint" />
          </mxGeometry>
        </mxCell>
        <mxCell id="JTAYTAqS8s9HP5UEAawi-118" value="&lt;b&gt;&lt;font style=&quot;font-size: 18px;&quot;&gt;10&lt;/font&gt;&lt;/b&gt;" style="rounded=0;whiteSpace=wrap;html=1;" vertex="1" parent="1">
          <mxGeometry x="203" y="1464" width="146" height="64" as="geometry" />
        </mxCell>
        <mxCell id="JTAYTAqS8s9HP5UEAawi-119" value="" style="rounded=0;whiteSpace=wrap;html=1;" vertex="1" parent="1">
          <mxGeometry x="-18" y="1572" width="146" height="64" as="geometry" />
        </mxCell>
        <mxCell id="JTAYTAqS8s9HP5UEAawi-120" value="" style="rounded=0;whiteSpace=wrap;html=1;" vertex="1" parent="1">
          <mxGeometry x="-240" y="1690" width="144" height="67" as="geometry" />
        </mxCell>
        <mxCell id="JTAYTAqS8s9HP5UEAawi-121" value="" style="endArrow=classic;html=1;rounded=0;fontSize=12;startSize=8;endSize=8;exitX=1;exitY=0;exitDx=0;exitDy=0;entryX=0;entryY=0.75;entryDx=0;entryDy=0;" edge="1" parent="1" source="JTAYTAqS8s9HP5UEAawi-119" target="JTAYTAqS8s9HP5UEAawi-118">
          <mxGeometry width="50" height="50" relative="1" as="geometry">
            <mxPoint x="200" y="1741" as="sourcePoint" />
            <mxPoint x="250" y="1691" as="targetPoint" />
          </mxGeometry>
        </mxCell>
        <mxCell id="JTAYTAqS8s9HP5UEAawi-122" value="" style="endArrow=classic;html=1;rounded=0;fontSize=12;startSize=8;endSize=8;exitX=1;exitY=0;exitDx=0;exitDy=0;entryX=0;entryY=1;entryDx=0;entryDy=0;" edge="1" parent="1" source="JTAYTAqS8s9HP5UEAawi-120" target="JTAYTAqS8s9HP5UEAawi-119">
          <mxGeometry width="50" height="50" relative="1" as="geometry">
            <mxPoint x="-101" y="1685" as="sourcePoint" />
            <mxPoint x="-26" y="1625" as="targetPoint" />
          </mxGeometry>
        </mxCell>
        <mxCell id="JTAYTAqS8s9HP5UEAawi-123" value="&lt;b&gt;int x;&lt;/b&gt;" style="text;html=1;align=center;verticalAlign=middle;resizable=0;points=[];autosize=1;strokeColor=none;fillColor=none;fontSize=16;" vertex="1" parent="1">
          <mxGeometry x="248" y="1528" width="56" height="31" as="geometry" />
        </mxCell>
        <mxCell id="JTAYTAqS8s9HP5UEAawi-124" value="&lt;b&gt;int *px;&lt;/b&gt;" style="text;html=1;align=center;verticalAlign=middle;resizable=0;points=[];autosize=1;strokeColor=none;fillColor=none;fontSize=16;" vertex="1" parent="1">
          <mxGeometry x="16" y="1639" width="72" height="31" as="geometry" />
        </mxCell>
        <mxCell id="JTAYTAqS8s9HP5UEAawi-125" value="&lt;b&gt;int **ppx;&lt;/b&gt;" style="text;html=1;align=center;verticalAlign=middle;resizable=0;points=[];autosize=1;strokeColor=none;fillColor=none;fontSize=16;" vertex="1" parent="1">
          <mxGeometry x="-225" y="1767" width="88" height="31" as="geometry" />
        </mxCell>
        <mxCell id="JTAYTAqS8s9HP5UEAawi-126" value="&lt;b&gt;100&lt;/b&gt;" style="text;html=1;align=center;verticalAlign=middle;resizable=0;points=[];autosize=1;strokeColor=none;fillColor=none;fontSize=16;fontColor=#FF3333;" vertex="1" parent="1">
          <mxGeometry x="168.5" y="1439.5" width="45" height="31" as="geometry" />
        </mxCell>
        <mxCell id="JTAYTAqS8s9HP5UEAawi-127" value="&lt;b&gt;200&lt;/b&gt;" style="text;html=1;align=center;verticalAlign=middle;resizable=0;points=[];autosize=1;strokeColor=none;fillColor=none;fontSize=16;fontColor=#FF3333;" vertex="1" parent="1">
          <mxGeometry x="-49" y="1541" width="45" height="31" as="geometry" />
        </mxCell>
        <mxCell id="JTAYTAqS8s9HP5UEAawi-128" value="&lt;b&gt;300&lt;/b&gt;" style="text;html=1;align=center;verticalAlign=middle;resizable=0;points=[];autosize=1;strokeColor=none;fillColor=none;fontSize=16;fontColor=#FF3333;" vertex="1" parent="1">
          <mxGeometry x="-266" y="1659" width="45" height="31" as="geometry" />
        </mxCell>
        <mxCell id="JTAYTAqS8s9HP5UEAawi-129" value="&lt;b&gt;100&lt;/b&gt;" style="text;html=1;align=center;verticalAlign=middle;resizable=0;points=[];autosize=1;strokeColor=none;fillColor=none;fontSize=16;fontColor=#FF3333;" vertex="1" parent="1">
          <mxGeometry x="29.5" y="1592" width="45" height="31" as="geometry" />
        </mxCell>
        <mxCell id="JTAYTAqS8s9HP5UEAawi-130" value="&lt;b&gt;200&lt;/b&gt;" style="text;html=1;align=center;verticalAlign=middle;resizable=0;points=[];autosize=1;strokeColor=none;fillColor=none;fontSize=16;fontColor=#FF3333;" vertex="1" parent="1">
          <mxGeometry x="-196" y="1710" width="45" height="31" as="geometry" />
        </mxCell>
        <mxCell id="JTAYTAqS8s9HP5UEAawi-131" value="&lt;b style=&quot;font-size: 25px;&quot;&gt;int&amp;nbsp; &amp;nbsp; * px&lt;/b&gt;" style="text;html=1;align=center;verticalAlign=middle;resizable=0;points=[];autosize=1;strokeColor=none;fillColor=none;fontSize=25;" vertex="1" parent="1">
          <mxGeometry x="-107.54000000000002" y="1298" width="122" height="42" as="geometry" />
        </mxCell>
        <mxCell id="JTAYTAqS8s9HP5UEAawi-132" value="" style="shape=stencil(7VrLbhw3EPyavRJ8Nsmz4/yHAcuREMUyZDmPv093FhwNi7M10i1AclvtskSyWV39IC/pw/f7T9/uLtF/f3l++vXuj4fPL/eX9NMlxoev93fPDy/66ZI+XtKHL0/Pd788P/34+vn697dPNtI+/fb0u/2HP6+4VpxEQ0X/1/WbIK6Hf775+Qp4fPi6B7QF0Fz1twE9uFAmQIwuZAKIrgIgu0KW1LPLAKgushnEBZkAybvCANVlAGQXGwE0l/MMaC5GAujO9wmQ4zD0LUCpM0Bc67cBwXvn/YQoweVKp+izXYu49K41SeAAJdO8JBFXGKA6P7OvBlcZN4rz85LqyQzRtfnkmnfCjtq7MC+pKR/JQTTdQ5sB1VUGyM7P56BzlkQAAa1kuyI+WhtSQ32qCgGUweYNoNQoBBBdTDOgUtmQ7iIsqY2TOQYInoPRkRycRNcXQCdmLd3JTI2dTx0jZNl1d42Yqeg5NQREAsjd1YpmSuTkTCUKHoQnds0ZPUh9KhG65jB+3gCJ0lWlsYOVAj25JIM6mwf1ISTHgDxceOdyQmQjRVQyDZSJaKUGEBD8lpwnm456TLAHP+LeMUDQIdRrGTU0akaQvkLNqnE5z+egXstCStQVgxqrPxDyBSVzQL1vZEmaW4BWSqJWChXZKlwrNd0JM1tLHU57DCiYC5TsAiFfyK4vcdcT8ikAziFXbqU8/t8GyNxKaRBhAwQaghQQZrOq07K4G1Rc5xlSoflM2Ki2ATQBIh5ngNlKUbWQWSmOkLZLEwOfQeYlqUvVE8DsD+pShZ2D/gxL8lRbFZDnJamHZD5DmmdQslAuxSEqG0DFmC/Jg/K5zjRgUZngKaCP5H8bn1wnp7DkMuqxbMfiBDasmQkLiIOWuzPLxP8z6oWOb2T9qibzfmOgpUNyIjie5Z9pVF+78czRllCo41luGNH+Np7YM2DktPUQaVG2LOOZ/Tf93433xD4eU1sLcyQgeOS/+TBdP/KzU376EV124zOxvx8l1248C8rqj7NSa0hkGpRcWxQlk/MtWOOpAgTC54qxqVP96ai5lacgAVPBzOUtYdK/afbN9ADM7wLT24ry5qm3r3TgJYgut3YY31heWrDYjDxpFPz/mZZpJs/z+Dr4dzy+Ywml4SKyXF/5D1VaGlnnMSBg+0gdILN6JWGOaT7EFDrhnmOkRkpLaapexzpalit5BNASKi5duUR5oVbC3CaN9tAtgJcFwPawCnWiXYu0uIJtmnGvI1ctGLICp2NuYO7E2QqVaYy0HFdAX6J9ZwfnR+PxjeFbAXWJ3yx+pIABRAGJLSmMfGY/A+NSHLX0G0O+AtY9sC61eVzEc2ANWwUglyLtT9kMC/nCyR4WejPlMysFBLDEy85hWVJnuhSGqOwBbAa/0HvLBm6yddm0cBeFBpgCWDZlLgqASDf9fsBaUFSuGrL0CTPPwMrone5qLhbjNMZiC5kW17bDWYuFdv7NHTGo09K6I1UT73AcJA3skDWpggaH0BTe2hUJ7EPr8IDr12+YM/clp030kmBpY6kFPFmQYE0XeK/v/xrzP1hjkvP6t9WYftRYOz5TwcIa0Nq0LKPA81LFDWQ9BfkWeD5R8W7ppAjRrG4pcliLOGG3VHgPervDfNU3lqzY+Iz7pVWvLE26k7ahLAp60piUJfc4aX3KqKP3zVXm87KI3En7VpbSt1IWGQBm6FS2DDCfmxVu/KCh1EyFXl+bWWGGRrNMBQhcNgQeK+vBZQNdUkXxzZVvuuJVQPH8skG3OC+pJA7omB8UodQwQZ3PoXTahLauz7xpSbTrZfUJAITey1oxAJrReSeoYKOvbmneMaBiJ6XmcWn5xl5NFV7BByxmax99iVtVF9x/tJNSs2Dm0tK4tDwGVHx91ApNpdLSgGyVXr7ZVdt6e03Ympfo0MMg/DFA0Eqd16a5YRei5xEhj+NnwFvTXiiX1CHhWU0X+qirrHvY3s0cA5acXAEsZxYNHyuAbFoKRiAFsJtfUSGLuGl20tVj3WVmJUuqCbvHdnDsHY7g9Z5Rg5hVHRICSuepcItoJaU3exqk/gVxunExbktB3nhToXukRvO0Pu3LVXEtI6M7BmRsFKq2Mqnsy7MDlXtGPqParK3CSzZ7swghS2iRrQDwB/Vy9qrm9eHQLrCzKsBcfp4h8z64sh8cSLMZ5kA9Y6Mw8esIZT8+1Ay0Yavsx1K40euF7pcksfD3gQ0zMiunyZLa0i04uZG2ELiWYxyA9UOjEUgB0OFVAJMZBcBjJc0C2WM8AwgCmFTakiICTvaQlyWd7AHU295S8yX1ioDGlpRdXGZgia4CsBUp3EoZK1cDMLaWxawn6v3uF+fnAP3w+sD9y8Pj4/V9/P53fBCvX10f06ePfwM=);lineShape=1;strokeColor=#3333FF;" vertex="1" parent="1">
          <mxGeometry x="-42.04798017031413" y="1326.903141213159" width="43.16301376168385" height="57.549240174263296" as="geometry" />
        </mxCell>
        <mxCell id="JTAYTAqS8s9HP5UEAawi-133" value="" style="shape=stencil(lVrZchw3DPyafWWRBC88O85/uMpypIoiuWQ5x98HzIazw+ZMb+lNcYBZEkejAfAin348fvn+cIn+x/vb6+8Pfz19fX+8yC+XGJ9eHh/ent7tr4t8vsinb69vD7+9vf58+Xr97+9fumT/64/XP/sX/r7qSXYpdK3o/7n+S4yulf/+5derwvPTy16huFRnBe9KJArVlVkhVKeNKDSXdVYoLniioK7mWUGckiOl4GKaFYLLgSiI83FSUBcSkc/Ot0m+UKOm6urshUTls5l8voC4SM6fxVUwqdNK5OtioGGAQ/ninc7n907IeUpyuYC8Jx4uzcWM8uQ8NY6Aucn/H1PH8nmE8O2+idinthHBWxK4SkK6RefnHEhOMpE398/yxQm5b6suzf5qrgiRV9fgvpYS5MK6xcumkGjEqUXc7AHL+kCurHl8b4crQmJCDYjAB+IacYJWlwG5Ks0CbQh1Ep0wBR1X3BQqxQlTKHMepOgiu4M6nX/BoKMQPwS/ZdbQMDCgjlDMhdxcJcFnZqrzJSy9WXaaI0RmBR35fRobs6trGp84VoiugII6TwDVEiLPdm2GqCyDsmszorZCg6kFPJJ66upq35tz2nIqkoSowbXZrGa3wlC14KW7Z0i4FgOJ+dLm+0yslK1ww6WVAl9ef8GgiiikMoBuwxnPa8ktw3Y/URnjaePIOwVPXC1pHHlnJk+SVAJmkIFbJkcy+gFJrVvFOFaw+gGXjiNajhUEK5CFayaO6BUTShCneUFHNG8KmQJ+LyDzHayssioXMuJMs9BgCoLMs1phJX4IS1k0YGoUjrGkdKrCAB+JjEEly+k6eOMmXyl3Lq7OXjPsZmw+I9UukYJSGkR8KyZKmVLC5DQqmhn3H1/b5DOtDOISnEdoSbdaOdvTEIoxyYjEMPOQi0jEUhvE6UQeaFWv/8Rf0eX5PAaYlZ4neZRnhTMgNpp8IuexmhdRnsXPwl6stQrEX354c5M3LkJKWhje2eRlWOxEHqC9y1N7QqOWhAK1jAK8O7/QfMHGItNSk5Z4y6M9P8l34MzmL5ZfZfR9O3kl9q+Lf+sYSJzIwzAhVdopb2i5ySvvWxZCriMjzuQTyjN8UGx8Tb6ylgLHMybPRhuKXVTmnfLSyHZ5RpQR/7s88a/xw8U+Sr+P+bu1qifycbFnYZ31gj9KK/zR91mjfHR+Vn9X+zTeRqD9Tb6ReFv82+VpvkD89PPQfFnjk+HPUfzTbvQgv1iLcpS/DJ8VGV/PR5pfafk+HTogn+nxT/HBA9+w/KLxDHh+V37FQ3aehnyp35fGZ1ztSeLho/Jl0Os9XyL3tQZUUD6S+xp7BP9W2hympT7yMdcyiLX6yPmDgnx2SvmhLPVdKH/D8yfaF3rsVO37jO+FJV8yrRdxGYRbB0H5PPor0/oo2H/1AQJbRoy9wM6/rDOXhW+3gWBn8bDWR8oPsZ+6s7nAntn6HVa/0ojGXT9FNwu4GLF+jQ54EJ+tH2Tzy2XbVALFK2OP0J8myt8a1qNS6LzJ0G/px1k9CgEbyBpoQQ1x8JfdSCGzDEtIUSqHoJARUyrH3FCxyLRIQTQs64WWaBdgae+X4RFtsxNOm9S7QKxkgQQbKo0UGHulhyFeogoSsdRo4VM/62ThSLz36YtRmPq1ccizUScMwPqGglipg6FHBXbpPq9dFCL5hVzQ08q3C5bvXtFKDOEtgWNFPzCKYAmJns6UQ1UDJThSpEWkLSDQ7nQ12yR0UyijUB8rtMEKdinK+gINCwi0AW3HCsvK1nApMGZdsBQaVAbWGjScBRShqKENh525UT/02JyD7/4uLAD9qrSc6+KHnoNcQeZfkEoTyKK/zthqwJPYpQuuhazoUT8sM94+ZWI9Y0Jc6ut2FhrLcworMYkpBKS1VvUyGzssfawV4sL6/LLsO/gcJOFCpdD06es/fAHA8tOyEWiAUF5VMw5u43iCcgZ6uNCnPK+/wJhTx1N79jWCoDybGwZ8MeMp7zeaCdv/wPcWaRS+m33YOssKGwxWN6Z+XDnbWBdv0ELnpH3sCvhLV+BJUF5p1qeA22NLALaZSn4xaKKbKVEkF6HQEDX6ApwtNAp1UvHVjwUFG7ZIWd6QCOU7pgCFOfIduykAG+kK/LmcX47EnkYZK9RVgXWQGUcid6DCFGCHdP8XykfvkOOHrJSRgnXHEXiUFe7ueDojXpsCW8wdKMTx9ub0SB97SXlfwf64Pdz89vT8fH33uf//+NDT/un6SFQ+/ws=);lineShape=1;strokeColor=#3333FF;" vertex="1" parent="1">
          <mxGeometry x="-80.88324648983604" y="1267.9993995277164" width="135.43170507612967" height="162.64758849054803" as="geometry" />
        </mxCell>
        <mxCell id="JTAYTAqS8s9HP5UEAawi-134" value="" style="shape=stencil(lVbLctswDPwaXTEkwOc5Tf8jM3FqTV0747ivvy9UlYoJSdv2JtNYAlhiAQzy8HZ8ej0M7N5u18vnw/fx+XYc5MPAPJ6Ph+t4069BHgd5eLlcD5+ul6/n5/n369NkOX19uXybbvgx42qlGCcUu5/zifdU8++TjzPgNJ7vACVTqB1AmAoDAJMPHSBE8gCQI4U+pJiJyz4gCnHqAFVgSKEQ+x6QKIGkgyfHPaBQTvsA5cTkoEQX4IGFglsBQNI+UPGrkCqglWKxOWdAkmaQV6SC+92KItc87tiHPh6trD+Fsk0plZ6gIlTjvn2l1Jdd8SQgX59J+oCyagMExMlWUcYvIJGYrQcPUghaFCYHzGnURzAApioAEEj6HEqkCgo7xtUzVBKQw+TB1BFTRgBH3qg5QlqVpWSkU9oVe++w1lpCUkgW4J0y7WAxxWRdMNB/pWzUqTd4pIZqUgjtZEdt0ajTUwb3L+ktz1xgD2aSfiqUAOto0x7wI46KdADtyYzEVtqQaQDl2KMy0sHWAwrsR6HafhFbiNt1vZT9MjjhCNGhJyYBcsA+sWXIwSGYSnugd/u/jGWJxh5JQNutacDa8UH802JhNpE2IbYVw7Y5CoxHx52YPQS2Rm0i1bR32KzvWsKisbZbbTv439XrHwD68b7pvYyn07wo3v9vN0M9mrdKefwF);lineShape=1;strokeColor=#3333FF;" vertex="1" parent="1">
          <mxGeometry x="-81.6202124835632" y="1341.7950420948314" width="3.1827428933822124" height="8.382504953346581" as="geometry" />
        </mxCell>
        <mxCell id="JTAYTAqS8s9HP5UEAawi-135" value="&lt;b&gt;int&amp;nbsp; &amp;nbsp; &amp;nbsp;*&amp;nbsp; &amp;nbsp;*&amp;nbsp; ppx;&lt;/b&gt;" style="text;html=1;align=center;verticalAlign=middle;resizable=0;points=[];autosize=1;strokeColor=none;fillColor=none;fontSize=16;" vertex="1" parent="1">
          <mxGeometry x="-322" y="1462.15" width="128" height="31" as="geometry" />
        </mxCell>
        <mxCell id="JTAYTAqS8s9HP5UEAawi-136" value="" style="shape=stencil(7VrLbhw3EPyavTZINp9nx/kPA5YjIYplyMrr79PEgrPD4k6NfAuQ3NZjlsjurn6SF/3w/fHTt4dLcN/fXl9+ffjz6fPb40V/uoTw9PXx4fXpzX5d9ONFP3x5eX345fXl96+fr//+9qmv7L9+e/mj/4W/rriWJKaOCu7v6xeNEq5ffr4Cnp++7gFZap0BRTQQQJHmJ0D0EiIBVMluBkTxbIcmAQBFCtuhSSkTIHnJ+RjgnRM3b5GyeKamJi1PgGxSVwrw85myaVqpXtO8QwkSiRBmap1NXcw0jQCC5DgBqkoghqgmw8yNuhn/PiBJaBPA9nRErdWjqU2qRHYopkQAcKFNiWnWklkmEaFzlRgmwI4t9xFRYlu2IJbLbtB5A5iPEKlTEQ+ATA2RFJ20RepCyUkGGbxUoldzyTyrqVZphN/m9GXewdhSiQfFgNyoQRqRQS0M6OwQ9oVoySJdBEAWJUKrRdf5SEUlsiPpYPMGcMMJ7wM8huNcpDKAkzjvkJN4wtbQxM2Gy6boQgAWfOcjpUa1FLKUJbhWdqQ07LoBojjCJQMoHMmLY0eKS9Kq4gg1DADROCaatAwAXDL+sqhhAJ39QatUEiv7DrNajY6JC421QBgB/VDoWYZQJRHyGQBSu31hUaMDYAdPq40V4AuNGh0A4XsLz0eAMGvJW1Ji5FOkRqX1TwhoaKM7kcC3hUkSiX+afBmcgfqziQcJLg8r3s/RyKJKiwYL6rN2rHIif90S1Vwm+UBdX5Fxtp4RSMVnXJ+YdSUnXJ+ZV4rXZT2hm79z/kzO48V7XB8JexySwdaz+t+JzqHX6NHoejyPp+xZCu3uXcReDrOTd7Rsdot93eDrwfqluhsSHfETMj7tLPIIfzdfZOm+bz7TR3njoljN8iTjs6SZDm60SvfZ7EZWvK13LLbpqFt361nSK1jTmXWZ97qR4W7yBlagqdQ5nGxp+agChA7HPrCq141Q/L7oFnWI985wEvPoZjZAEkcsZoU7dIGWINkOVos5UKnplPUSGSvMsPVURwAgXeCFewfMTmy8UuIGBtCCANreZOS1EYOqNS2lUKTMs4oVDHcr8I4AEIk6gKl16ekMwMhqAOhLg551jcEjgFpaMRv0fMvsoOhvRo1CHDRt/dUOQKmho13aAailI2bAwDvfbmm3AJgMacxxdgBqhzRS8E4G1nx0fwgIYHGve9yipcqDAAZiPjvqUSMhIHMAzDhuteGRlsrSfLDC3QAwkusex6mRF49TUnylLajsj8QdaN2B9aU/DOh9LhRg1r3zOQ2UGJ5379E6ONiBa8mSLoxrrSYsxKf7CBuzLgt86kcLcetwGLl7RwPzY3Gsx9RRgt+qNkY8b110gfWsB/EJh0CRhmGrKSAz5FFF3x8E47ilUEcrS4vjTlq0f11Lt6z/v6Xbr/9vtXRujGt25/fUXlBhtxM6QxFVhv0OOkaHsYfNtxrWEnxS6pcBdKCx2ZoHqLc85bIpE/uV0YEdhU64v1E+rU44/0vUVn32jA0dPU/B5sbIQDveZRp+Nl9cAScTzAVwNiMtI7u9dwpbML+czXkLhvSzSXIdStzPqpkd6qDBfhrOczZ0EpEX1QZQGKtGboeK16X9GprfrEDisOac3T8ZAHaw8o7dTaobdcYGsPDBKiePWkqVVuEasJPI27j4aOIC8/Yc6TjBijlobnKWxnbIOD/PjcYkYw7U+f0mndA7OiRfSTRKxmWkXyq9iulUgyG6p1nBqAaXPTXSO2Wjmofr1UKzplENyvZm7DoZusBkP9DhXVr8oV9Cs+GpxzDTMq10+lUnpOZtwHgfUEcfvQMUYoeyXJY0Pl4z5oSAMjA7lLYAIr1PqrrI4Gh9V/NCvswfijhUa+UVthEBs26hHteW+9jCH4p0Jc6h0qIGCwJmJr8+2CEZqC1tTuLk6y+nZjskTwOZAaDQ7s05k2F5zGVxhHUKXa0w/uZhpineV1jwpHYIOBfVSJtHA6wP0lgW7YCCADbL6kdaAJ4fqczUsCTGnq6YlmB6bAA2tTQA1Br9IQjzOMUerwOYluIw0w5wQg0IZMprjVus3gGox6U7RypM6OW1mPJZ1o8/bjwH2I/bW8ovT8/P16eY+//Ht5f26fpuUz/+Aw==);lineShape=1;strokeColor=#3333FF;" vertex="1" parent="1">
          <mxGeometry x="-257.9835286151708" y="1483.2458338823863" width="39.67990591810216" height="54.12503712894061" as="geometry" />
        </mxCell>
        <mxCell id="JTAYTAqS8s9HP5UEAawi-137" value="" style="shape=stencil(lVjZbhsxDPwavxISqfM5Tf8jQJzGaBoHjtPj70vV0HZFecfImw+OJF7DYyd3788Pb/sdu/fz6fh9/+vweH7eyZcd8+H1eX86nPXTTu53cvd0PO2/nY4fr4+X728PTbJ9+nH82U74fcFxIBcbit2fyy+BMv/74etF/uXwupavFPIg78i5bfnoqYiVB+dnTzUM8pkKkC9MNQ3yPhLHbUDl/t4OUI1LAYBCPN4giTxQ2TtnrwiVSgZXBGvUJBSQ1oHiCMiRMlAis1WiRAoAEAvVMS6qkA/bgBAnQCHx2wCJ5Hn0nMOxxImy2CsK8LXGWjWA2MPxuusSpdGu1XdLXwcIpVHrosGBAL7/vXiu4gC3KjRXAp1TD+YllAIJeJCGgR/kY+oZdd3PFMb8jA6GqvS4XHJBT6hI3pwvFcadkIy5JpobwMUaxXWUd9D+bCNCGdCB9/hu7UVe+QOc78iP/lXCC8D+E7eoBys431umUA8mED/Sk3YlX4G/orWnRiBK4kxu0jcCmihX7I/kvRpoBIjvKbSVkWwiLhADjT2TH0NaC0IAJlWA8YEUGNMNYEpO7mVxC5DEAjJ+Uo4WELHSlS0AFRBlRu8nAPKDRt58AwbE6YaICrPYWFJAwjcY8lJAwTeUyQ8oexrA6FB6dG0+iS1AAF80KxULgAmkDOwsIGGleQagaBXLYQ2AnsSdotc6INKbWLtZCZmVr1iJkdJzihZyWIdklM7d95spOgGgWdVKE2vc8LSbSCBgx/EMQH6QToxrwI1+aiKBeCMfphsy1sHGUsYF9NMAb0u61oeCSMDZnlArUAaA0jllkWeYDkvcrHoe1Jon25nrjagLDr1jWdV0gT1SdVbeASez7WmbRrDnTMm+H1VDrfdi7YPsH7p2654T2DP0SrnqaZG+wRYF7ZkRe0U7PmpPzkA+9bq66vkz8G/u4buaKTyom3WaWdTjmH29Gforpolg2VfH2YyoLluVq4M5qTFq5hAd0tFcpEY1QV0zHPo1ZqqZNStcjeiEbZTWGwS15qWT8wJgGBfqJlOjSoBmLdK5drWH8MBKderZksBxSid8s98JFbbzzSaGrhNFtBDytn3hxdBbKycZY8knmM5q1jg+qcBlTduZjS/y8HxlK2d3bGij1fhlrJkRWqitBA1fwLa5TZjOyuP3mPoRe+uzJW9cfPN8M6NG2Ei1nWi29kGpLzaTIxzhm7zZucByqfLFns8gK6/Jw/IqlrpC3+VtypucxCuUz+6Yb8rrh/8L7afDy8tlH77+3y7A9afL8lzu/wI=);lineShape=1;strokeColor=#3333FF;" vertex="1" parent="1">
          <mxGeometry x="-272.6750159329308" y="1460.7680399358737" width="99.79175869407959" height="104.14972692286405" as="geometry" />
        </mxCell>
        <mxCell id="JTAYTAqS8s9HP5UEAawi-138" value="" style="shape=stencil(lVbZctswDPwave6QAM/nNP2PzMSpPXXjjONef1+qGjomFG2bNx27IoDFQpj07nX/8LKbxL1ezqevu5+Hx8t+0k+TyOF5vzsfLu1q0vtJ755O592X8+n78+Ny//IwI+erb6cf8xd+LbyakdzMEvd7eeIdXP775PNCOB6ebwilQPJISCiMIHB+IIig+G1CVhQdCOoQ3DYhKVIZCRVVtgnRI4+EKNC6TdCCKAMhJUjcJkhAGKtUHEogVUKMA74WaCJFgo4B1QolAcV++g2+EhECJK3wJB5BXn0/Egk8wirfRPDOCtAal9WnNbGJJ9IuvTb9FR+gpOectU2V3rUb+cax46pHIvWXrs4V75CJvq3fgsWz+iQ4sfhA6pMRVvG7wvo5JVsfT/KtCAavNJ6KbPSKcESv1o0Gn7rjNuIvJt+MSvB5FU+lYzR1dW7wmdQzIFczph1NWCG6OoAasqwMyQzv7AhtBWJT3cEHK4CShK/Z3Riy0AGhRgClBvYQYzCPSuL5MD71152QAxesjbhRsVjhCSFod1QnhFYiQojt9dh07Uz2n0zRitbKXMmUa7/uPObgFZGEVLydK5mq1oruxzZtAbExIf2v+IZX8htuTWPmluvby/v4aOcod+Xc9MHGw76fES2eCdBMG8f4PXXlvDUYhVFZ/NXuZqEL8r4L3MrHsSu+ecAoWPpnAmbRonN3XjOMj+EZ/qP78X8Q2sXbOv50OB6Xbf72vV3f26Nl9df7Pw==);lineShape=1;strokeColor=#3333FF;" vertex="1" parent="1">
          <mxGeometry x="-280.90946727875735" y="1486.828369055615" width="11.925114963138688" height="12.078375395630529" as="geometry" />
        </mxCell>
        <mxCell id="JTAYTAqS8s9HP5UEAawi-139" value="" style="shape=stencil(lVvZchw3DPyafWWBN/nsOP/hKsuRKorkkuUcfx8wCqllY6en9LZaATMkjkYD5F7ipx/3X77fXYL8eH15/v3ur4evr/eX+MslhIen+7uXh1f9dImfL/HTt+eXu99enn8+fX37+/uXITk+/fH853jC3296oTmfhlaQf/7/JrnY//vm1zeFx4enXSH0XSG68SdRaH5X8C41otBdaLuCuCBUoddNwTeX67FCFNdlVyiuJqIQnN837ZMr7A3Rtd2sPriUiUJGK3lxMRKF5qRsCssxN+WTuBI3+eIScVuK00lTPrnqiXyZJp/y0UXitNRdgzhynuw36+PCbiAXCpEvru3rVwOQ9Rc1dwV5T55fIsaQOCH7LRXXr/Ikgqq4is9n9qwacQX3S7KsasR3tCcJ0NoxHoIT4q/m0T7BdRKfLc0cf483T+zTigu7v7JLTL7N8HqP/0biv2l87vLNJbLf7idsXiUwQ60e8AUKEUIirqtBALUSdUHPE5ivYM4TH/diYK5R1FKFDkHh+R6qq/uSFCY620PDtFG/dZLHqgBmVbT3zA8draTgndkbust7psXC99CxGCgYM+xShb77QdE4Ez94WeCzNApNf31F3dNHAblyM8XdrjnMinLkiLzvOme+pIoInBd1OIpvKCFFM4hgjGaQgIIuidR9TWoIptLnIo9QA6ykuCxk021V4aVwgkvR1H2h4TqAO+8KWipY5VlAuhTKxPLbCn4i9VLoNDSKcoU9WhUMhcR38a7uZh2uJHvQ6l92T49gYXTBG4VKeXAy0KcBzwhGChjeA0iIp2NFFLhK8yPWWQu+onOqXc2aKDcviDMjzYldteoDLVS7BvIG3yfNufJcJjk6atqeQV2pK7GSj8gculAraSEHsyqZYNy5IdVueVaA2+GNONYW2b0drJOJXEFAY1wbe7zaKNeLRj5PMn3byS6CfKTtlJ91YMlrfjMHIL4oOWYsQ/21I17h/pIZL0ueA57gerSMZIJ3utrdPiVR/5pirs2GJ1ik8nvveFIHV+ex5IVyc93v7q/cKZgKpvBJIRcsOLnS+BEkkQPuabyJYSKZIQTGc+YzET9nAUue529AfymVYr275hfIrxUeyBdYv1BE1M4M+KlWAbKeONnrkm+03kckzKnS+ImIhyrPKHzC+NTiTGs3xltSGkifj1x5fXOAz7Ljs9J3VmAy9jgqz3rfhTZLXiOEPr/teDiGQcQ+GVt3lWftRzbtitBeWSu2R/nI6J+JN5kZcSCfzPpZPhbsVIY8saeijbEnmz0UZK/D/mxWhHxD5RkeruHllXwj/i1Yf5MiJLePkWezOrV/Qnk2CilYL4Y8XY/PZj10vxKMPOVX3cgz+2QcvQ3783w0/mL+zTjKHPnI8/eD8Ql8IAntcjUfbf5Sf0WzHp6/2eYvxYcSzH55vpj1M3wryCdP8POWPOf/H5VPsP7AZ9vIV8dwn9YXjLfEZ+0Tza7qKe3OTb5nyrcTttppIeqBPOJzpfGQkF8pn2H1N5r1NDqTjMjHxqyN5Es0fE8ovwp4/qX8kDblhh8GyoeD4fN8QurNehJdj+XPGlFUPkI/sg4zjvpH2G+l+SVm/e2kH4QpofZHbCAsiD+F1xdBf2l/x/iwIB6O/pHUI3s0mOh8wMxDSqZ8T5Afan/N+LPHIar274HKA/8pnfKfMHd3NX9g9TQgH66R9vsRZ4k1T0Q6wiuYh1Taj2fs185GwJgvjZ/FdRyTN3625j2eG7U2W9yjEVyBQaWcDfkSKIRJ0o7GiMBZe6Y5pk6uoMCLzKiquxc691owx0Cdw8rNcS7ra8fEOKBC4jNpyISxJFYpC0KdKgijrn5G5pVZGzvnL3P0cOU4Sha9UeDZqeATwEqeDuKrYP/c+vT9bYWMDe445iFLqh0nVC1SxqIJDBCvEMBammZ6grpS6raCOUetYdLU26DhcYqhKMxYYDdjIS0jrO0egQBzXT89c1uh4KUaLeSs8R4ZvC8p88muRn+1VIqdKHYzq+q0NowM/ujJLipEehtqHIB/qD0bGGEPwFk9MQci8WRJWu93s45DfPaGiiMWLXoM7lXB3nuj0WqarnFhht++ANbmG3dcwhs/nl/R0gSCvssn2idrzYQEGrfS2BsEmYbnkwcFRjjObnTS2ypW3UpvOVkYy5Or35aPZpRDO/dmWpFI01mBG1q1QO2joAvP9/S0fxykNZBnTFhLVcFbYHQSWHH9QjuvYuzJ46EIjgKFFpFczJk3zfsccZTvaWenjTRQ20DjIa3LGO/xwJ6vUAu36jKdZCbBUQI/eYwNeXCjJFWBGbB9HGYzhWSuWQZ6thwDNrM+0cOO6PE+iq+0WYiC43nPjxMH0d6DYpwwcgU4UB8jCTZAaYiL40yM35rGS9CJtlTDrx0V2IxyKGRUKCT0hoIYBXbKb6r4OBhjHVJDgjcUuFnxjik/aBsKZg8nb8DrhKd7CNas3ErBmpX7wRsrnXjaUpeTWPrwHf8zBf3w/pOCbw+Pj2+/SLj+P/4EQb96+/lC/Pwv);lineShape=1;strokeColor=#3333FF;" vertex="1" parent="1">
          <mxGeometry x="-316.9671386740217" y="1423.9967332712508" width="173.42414188396515" height="175.2108701442545" as="geometry" />
        </mxCell>
        <mxCell id="JTAYTAqS8s9HP5UEAawi-140" value="" style="shape=stencil(lVZJcttADHwNr6gBZsOcHecfrrIcqaJILlnO8vuAYUhrQLEruVFkA8LSPT1DfHjbP73uBglv18v56+7H4fm6H+KnQeRw2u8uh6s9DfFxiA8v58vuy+X8fnqefr8+jcjx6dv5+5jh5xTXKuUwRkn4Nb3hRKH8efN5CjgeTjcBNVGSLiAytbYdkBvV0gWkRDltB9hnyV2ApQi6HSBCqXUBypQZlES177nZH2RQEeXm8Rq38ZHiCt9QAyTi8alu45mEe7xSBPhAqd9AK1RBPWFmwIJPpDB/SD1eSME8rR43/0BNUL/c96uNBFBOiPv8qsRwX45waqqAfHDzNHwB9WfK6uuJQAGFsvh+Uf5K7PbFFEG/lZLblzE2IPzfbAs+UwT6KqQu/1LhBj64/EoF4NOsphu9FDDPSLXXIwejLGhYqKwOiAoaZr8wa6ACggYq6gcUoWA4+wVksOClu5sFY7y4hTE8ooNfsBEU9ctUncCUEujX8GmFB4Rg9S5Ww3zG32dQ8C6W6mxT9yVcZodYbE8g56wA7QO4wR3bimpfUoCcszO5RodnUJBRxqkAa6CtVBzgoWsUVnZ4ZHofGp/xAk3YJOhOoUgJcLo132+ebeo+h8JKNQWSejR1ZwOUgUuOh1SPZ5somlCbXWsJYFLgAzZSZ6wcZ+vc2tn/3f7+IcAePi6bL4fjcbqr3n73l1N7NV1s4+Nv);lineShape=1;strokeColor=#3333FF;" vertex="1" parent="1">
          <mxGeometry x="-319.4272579840749" y="1493.0615604526843" width="14.548621476639616" height="8.671775688144407" as="geometry" />
        </mxCell>
        <mxCell id="JTAYTAqS8s9HP5UEAawi-141" value="" style="shape=stencil(lZfLctswDEW/RlsMSRAksU7T/8hMnFpT1844Th9/X7oqVRGSbqY7WeYxgIsH4YEf3o5Pr4chuLfb9fL18GN8vh0H/jSEMJ6Ph+t4q08DPw788HK5Hr5cL+/n5+nz69P95P3p2+X7/Rd+Tlwhp3couF/TC0fq/rz4PB0/jefF8cDEvjvvK6D7ADMV1wHVgpR9IEZyuQPYkwOARMqhA2IgATEkIU0dIELe7wM5U5IOSEpF9oGi5EsHFCEGKqkS9xZUqDAESm9BEyUMaJ9ozSQg6AqkXiUtxAkAhZR7oMoA8lAdsDFoE3obqCF6CygChEJaAaCWlNvXCyAjlcJGDAEFHZomC1kjcsk3BxaJSxEDppYSZZS4QKFvoKqbIgtMLlkgoDzEpskM1KZFQUurzQUgGZZGEQvAWloNvmrTocTpBiC4p9d5YOCSd655sEj139TsTgEj0xzWHhBWQEGJKBsdhIZr9diJBaAFsfW90GGvmlhXJtDs41WBK0XcpBysTBl1xP8CxdvpWjLsiOzslZKrTXQtljYl5lsuk4JRFjPFPhFRKAJZOdkC50geDJqQ2s0/7wJ13oKu9qnlda4NgdPVN0nmmCkAjRyl/nidSuDXnW2euqoAQVfdzB84Y/aeusUA9Z3NlqcCRoW3zvhWTzvHzWBxcJoGynaLDCCvbC9N14bGdimTY3sc7XfkxRz3QMhM3voeUefa+xsvzB/u1/Xh327+Mp5O02q//N7u8vXV9D+AH38D);lineShape=1;strokeColor=#3333FF;" vertex="1" parent="1">
          <mxGeometry x="-307.49190774608655" y="1493.7960268912343" width="12.565027401902814" height="19.2515225355055" as="geometry" />
        </mxCell>
        <mxCell id="JTAYTAqS8s9HP5UEAawi-146" value="" style="shape=table;startSize=0;container=1;collapsible=0;childLayout=tableLayout;fontSize=16;fontStyle=1" vertex="1" parent="1">
          <mxGeometry x="157" y="1638" width="665" height="418" as="geometry" />
        </mxCell>
        <mxCell id="JTAYTAqS8s9HP5UEAawi-147" value="" style="shape=tableRow;horizontal=0;startSize=0;swimlaneHead=0;swimlaneBody=0;strokeColor=inherit;top=0;left=0;bottom=0;right=0;collapsible=0;dropTarget=0;fillColor=none;points=[[0,0.5],[1,0.5]];portConstraint=eastwest;" vertex="1" parent="JTAYTAqS8s9HP5UEAawi-146">
          <mxGeometry width="665" height="70" as="geometry" />
        </mxCell>
        <mxCell id="JTAYTAqS8s9HP5UEAawi-148" value="Valu of x" style="shape=partialRectangle;html=1;whiteSpace=wrap;connectable=0;strokeColor=inherit;overflow=hidden;fillColor=none;top=0;left=0;bottom=0;right=0;pointerEvents=1;fontStyle=1;fontSize=16;" vertex="1" parent="JTAYTAqS8s9HP5UEAawi-147">
          <mxGeometry width="257" height="70" as="geometry">
            <mxRectangle width="257" height="70" as="alternateBounds" />
          </mxGeometry>
        </mxCell>
        <mxCell id="JTAYTAqS8s9HP5UEAawi-149" value="&lt;b&gt;&lt;font style=&quot;font-size: 20px;&quot;&gt;x&lt;/font&gt;&lt;/b&gt;" style="shape=partialRectangle;html=1;whiteSpace=wrap;connectable=0;strokeColor=inherit;overflow=hidden;fillColor=none;top=0;left=0;bottom=0;right=0;pointerEvents=1;" vertex="1" parent="JTAYTAqS8s9HP5UEAawi-147">
          <mxGeometry x="257" width="95" height="70" as="geometry">
            <mxRectangle width="95" height="70" as="alternateBounds" />
          </mxGeometry>
        </mxCell>
        <mxCell id="JTAYTAqS8s9HP5UEAawi-150" value="*px" style="shape=partialRectangle;html=1;whiteSpace=wrap;connectable=0;strokeColor=inherit;overflow=hidden;fillColor=none;top=0;left=0;bottom=0;right=0;pointerEvents=1;fontStyle=1" vertex="1" parent="JTAYTAqS8s9HP5UEAawi-147">
          <mxGeometry x="352" width="92" height="70" as="geometry">
            <mxRectangle width="92" height="70" as="alternateBounds" />
          </mxGeometry>
        </mxCell>
        <mxCell id="JTAYTAqS8s9HP5UEAawi-151" value="**ppx" style="shape=partialRectangle;html=1;whiteSpace=wrap;connectable=0;strokeColor=inherit;overflow=hidden;fillColor=none;top=0;left=0;bottom=0;right=0;pointerEvents=1;fontStyle=1" vertex="1" parent="JTAYTAqS8s9HP5UEAawi-147">
          <mxGeometry x="444" width="107" height="70" as="geometry">
            <mxRectangle width="107" height="70" as="alternateBounds" />
          </mxGeometry>
        </mxCell>
        <mxCell id="JTAYTAqS8s9HP5UEAawi-152" value="10" style="shape=partialRectangle;html=1;whiteSpace=wrap;connectable=0;strokeColor=inherit;overflow=hidden;fillColor=none;top=0;left=0;bottom=0;right=0;pointerEvents=1;fontStyle=1" vertex="1" parent="JTAYTAqS8s9HP5UEAawi-147">
          <mxGeometry x="551" width="114" height="70" as="geometry">
            <mxRectangle width="114" height="70" as="alternateBounds" />
          </mxGeometry>
        </mxCell>
        <mxCell id="JTAYTAqS8s9HP5UEAawi-153" value="" style="shape=tableRow;horizontal=0;startSize=0;swimlaneHead=0;swimlaneBody=0;strokeColor=inherit;top=0;left=0;bottom=0;right=0;collapsible=0;dropTarget=0;fillColor=none;points=[[0,0.5],[1,0.5]];portConstraint=eastwest;" vertex="1" parent="JTAYTAqS8s9HP5UEAawi-146">
          <mxGeometry y="70" width="665" height="69" as="geometry" />
        </mxCell>
        <mxCell id="JTAYTAqS8s9HP5UEAawi-154" value="Address of x" style="shape=partialRectangle;html=1;whiteSpace=wrap;connectable=0;strokeColor=inherit;overflow=hidden;fillColor=none;top=0;left=0;bottom=0;right=0;pointerEvents=1;fontStyle=1;fontSize=16;" vertex="1" parent="JTAYTAqS8s9HP5UEAawi-153">
          <mxGeometry width="257" height="69" as="geometry">
            <mxRectangle width="257" height="69" as="alternateBounds" />
          </mxGeometry>
        </mxCell>
        <mxCell id="JTAYTAqS8s9HP5UEAawi-155" value="&amp;amp;x" style="shape=partialRectangle;html=1;whiteSpace=wrap;connectable=0;strokeColor=inherit;overflow=hidden;fillColor=none;top=0;left=0;bottom=0;right=0;pointerEvents=1;fontStyle=1" vertex="1" parent="JTAYTAqS8s9HP5UEAawi-153">
          <mxGeometry x="257" width="95" height="69" as="geometry">
            <mxRectangle width="95" height="69" as="alternateBounds" />
          </mxGeometry>
        </mxCell>
        <mxCell id="JTAYTAqS8s9HP5UEAawi-156" value="px" style="shape=partialRectangle;html=1;whiteSpace=wrap;connectable=0;strokeColor=inherit;overflow=hidden;fillColor=none;top=0;left=0;bottom=0;right=0;pointerEvents=1;fontStyle=1" vertex="1" parent="JTAYTAqS8s9HP5UEAawi-153">
          <mxGeometry x="352" width="92" height="69" as="geometry">
            <mxRectangle width="92" height="69" as="alternateBounds" />
          </mxGeometry>
        </mxCell>
        <mxCell id="JTAYTAqS8s9HP5UEAawi-157" value="*ppx" style="shape=partialRectangle;html=1;whiteSpace=wrap;connectable=0;strokeColor=inherit;overflow=hidden;fillColor=none;top=0;left=0;bottom=0;right=0;pointerEvents=1;fontStyle=1" vertex="1" parent="JTAYTAqS8s9HP5UEAawi-153">
          <mxGeometry x="444" width="107" height="69" as="geometry">
            <mxRectangle width="107" height="69" as="alternateBounds" />
          </mxGeometry>
        </mxCell>
        <mxCell id="JTAYTAqS8s9HP5UEAawi-158" value="100" style="shape=partialRectangle;html=1;whiteSpace=wrap;connectable=0;strokeColor=inherit;overflow=hidden;fillColor=none;top=0;left=0;bottom=0;right=0;pointerEvents=1;fontStyle=1" vertex="1" parent="JTAYTAqS8s9HP5UEAawi-153">
          <mxGeometry x="551" width="114" height="69" as="geometry">
            <mxRectangle width="114" height="69" as="alternateBounds" />
          </mxGeometry>
        </mxCell>
        <mxCell id="JTAYTAqS8s9HP5UEAawi-159" value="" style="shape=tableRow;horizontal=0;startSize=0;swimlaneHead=0;swimlaneBody=0;strokeColor=inherit;top=0;left=0;bottom=0;right=0;collapsible=0;dropTarget=0;fillColor=none;points=[[0,0.5],[1,0.5]];portConstraint=eastwest;" vertex="1" parent="JTAYTAqS8s9HP5UEAawi-146">
          <mxGeometry y="139" width="665" height="71" as="geometry" />
        </mxCell>
        <mxCell id="JTAYTAqS8s9HP5UEAawi-160" value="value of px" style="shape=partialRectangle;html=1;whiteSpace=wrap;connectable=0;strokeColor=inherit;overflow=hidden;fillColor=none;top=0;left=0;bottom=0;right=0;pointerEvents=1;fontStyle=1;fontSize=16;" vertex="1" parent="JTAYTAqS8s9HP5UEAawi-159">
          <mxGeometry width="257" height="71" as="geometry">
            <mxRectangle width="257" height="71" as="alternateBounds" />
          </mxGeometry>
        </mxCell>
        <mxCell id="JTAYTAqS8s9HP5UEAawi-161" value="N/A" style="shape=partialRectangle;html=1;whiteSpace=wrap;connectable=0;strokeColor=inherit;overflow=hidden;fillColor=none;top=0;left=0;bottom=0;right=0;pointerEvents=1;fontStyle=1" vertex="1" parent="JTAYTAqS8s9HP5UEAawi-159">
          <mxGeometry x="257" width="95" height="71" as="geometry">
            <mxRectangle width="95" height="71" as="alternateBounds" />
          </mxGeometry>
        </mxCell>
        <mxCell id="JTAYTAqS8s9HP5UEAawi-162" value="px" style="shape=partialRectangle;html=1;whiteSpace=wrap;connectable=0;strokeColor=inherit;overflow=hidden;fillColor=none;top=0;left=0;bottom=0;right=0;pointerEvents=1;fontStyle=1" vertex="1" parent="JTAYTAqS8s9HP5UEAawi-159">
          <mxGeometry x="352" width="92" height="71" as="geometry">
            <mxRectangle width="92" height="71" as="alternateBounds" />
          </mxGeometry>
        </mxCell>
        <mxCell id="JTAYTAqS8s9HP5UEAawi-163" value="*ppx" style="shape=partialRectangle;html=1;whiteSpace=wrap;connectable=0;strokeColor=inherit;overflow=hidden;fillColor=none;top=0;left=0;bottom=0;right=0;pointerEvents=1;fontStyle=1" vertex="1" parent="JTAYTAqS8s9HP5UEAawi-159">
          <mxGeometry x="444" width="107" height="71" as="geometry">
            <mxRectangle width="107" height="71" as="alternateBounds" />
          </mxGeometry>
        </mxCell>
        <mxCell id="JTAYTAqS8s9HP5UEAawi-164" value="100" style="shape=partialRectangle;html=1;whiteSpace=wrap;connectable=0;strokeColor=inherit;overflow=hidden;fillColor=none;top=0;left=0;bottom=0;right=0;pointerEvents=1;fontStyle=1" vertex="1" parent="JTAYTAqS8s9HP5UEAawi-159">
          <mxGeometry x="551" width="114" height="71" as="geometry">
            <mxRectangle width="114" height="71" as="alternateBounds" />
          </mxGeometry>
        </mxCell>
        <mxCell id="JTAYTAqS8s9HP5UEAawi-165" value="" style="shape=tableRow;horizontal=0;startSize=0;swimlaneHead=0;swimlaneBody=0;strokeColor=inherit;top=0;left=0;bottom=0;right=0;collapsible=0;dropTarget=0;fillColor=none;points=[[0,0.5],[1,0.5]];portConstraint=eastwest;" vertex="1" parent="JTAYTAqS8s9HP5UEAawi-146">
          <mxGeometry y="210" width="665" height="69" as="geometry" />
        </mxCell>
        <mxCell id="JTAYTAqS8s9HP5UEAawi-166" value="address of px" style="shape=partialRectangle;html=1;whiteSpace=wrap;connectable=0;strokeColor=inherit;overflow=hidden;fillColor=none;top=0;left=0;bottom=0;right=0;pointerEvents=1;fontStyle=1;fontSize=16;" vertex="1" parent="JTAYTAqS8s9HP5UEAawi-165">
          <mxGeometry width="257" height="69" as="geometry">
            <mxRectangle width="257" height="69" as="alternateBounds" />
          </mxGeometry>
        </mxCell>
        <mxCell id="JTAYTAqS8s9HP5UEAawi-167" value="n/a" style="shape=partialRectangle;html=1;whiteSpace=wrap;connectable=0;strokeColor=inherit;overflow=hidden;fillColor=none;top=0;left=0;bottom=0;right=0;pointerEvents=1;fontStyle=1" vertex="1" parent="JTAYTAqS8s9HP5UEAawi-165">
          <mxGeometry x="257" width="95" height="69" as="geometry">
            <mxRectangle width="95" height="69" as="alternateBounds" />
          </mxGeometry>
        </mxCell>
        <mxCell id="JTAYTAqS8s9HP5UEAawi-168" value="&amp;amp;px" style="shape=partialRectangle;html=1;whiteSpace=wrap;connectable=0;strokeColor=inherit;overflow=hidden;fillColor=none;top=0;left=0;bottom=0;right=0;pointerEvents=1;fontStyle=1" vertex="1" parent="JTAYTAqS8s9HP5UEAawi-165">
          <mxGeometry x="352" width="92" height="69" as="geometry">
            <mxRectangle width="92" height="69" as="alternateBounds" />
          </mxGeometry>
        </mxCell>
        <mxCell id="JTAYTAqS8s9HP5UEAawi-169" value="ppx" style="shape=partialRectangle;html=1;whiteSpace=wrap;connectable=0;strokeColor=inherit;overflow=hidden;fillColor=none;top=0;left=0;bottom=0;right=0;pointerEvents=1;fontStyle=1" vertex="1" parent="JTAYTAqS8s9HP5UEAawi-165">
          <mxGeometry x="444" width="107" height="69" as="geometry">
            <mxRectangle width="107" height="69" as="alternateBounds" />
          </mxGeometry>
        </mxCell>
        <mxCell id="JTAYTAqS8s9HP5UEAawi-170" value="200" style="shape=partialRectangle;html=1;whiteSpace=wrap;connectable=0;strokeColor=inherit;overflow=hidden;fillColor=none;top=0;left=0;bottom=0;right=0;pointerEvents=1;fontStyle=1" vertex="1" parent="JTAYTAqS8s9HP5UEAawi-165">
          <mxGeometry x="551" width="114" height="69" as="geometry">
            <mxRectangle width="114" height="69" as="alternateBounds" />
          </mxGeometry>
        </mxCell>
        <mxCell id="JTAYTAqS8s9HP5UEAawi-171" value="" style="shape=tableRow;horizontal=0;startSize=0;swimlaneHead=0;swimlaneBody=0;strokeColor=inherit;top=0;left=0;bottom=0;right=0;collapsible=0;dropTarget=0;fillColor=none;points=[[0,0.5],[1,0.5]];portConstraint=eastwest;" vertex="1" parent="JTAYTAqS8s9HP5UEAawi-146">
          <mxGeometry y="279" width="665" height="70" as="geometry" />
        </mxCell>
        <mxCell id="JTAYTAqS8s9HP5UEAawi-172" value="value of ppx" style="shape=partialRectangle;html=1;whiteSpace=wrap;connectable=0;strokeColor=inherit;overflow=hidden;fillColor=none;top=0;left=0;bottom=0;right=0;pointerEvents=1;fontStyle=1;fontSize=16;" vertex="1" parent="JTAYTAqS8s9HP5UEAawi-171">
          <mxGeometry width="257" height="70" as="geometry">
            <mxRectangle width="257" height="70" as="alternateBounds" />
          </mxGeometry>
        </mxCell>
        <mxCell id="JTAYTAqS8s9HP5UEAawi-173" value="n/a" style="shape=partialRectangle;html=1;whiteSpace=wrap;connectable=0;strokeColor=inherit;overflow=hidden;fillColor=none;top=0;left=0;bottom=0;right=0;pointerEvents=1;fontStyle=1" vertex="1" parent="JTAYTAqS8s9HP5UEAawi-171">
          <mxGeometry x="257" width="95" height="70" as="geometry">
            <mxRectangle width="95" height="70" as="alternateBounds" />
          </mxGeometry>
        </mxCell>
        <mxCell id="JTAYTAqS8s9HP5UEAawi-174" value="&amp;amp;px" style="shape=partialRectangle;html=1;whiteSpace=wrap;connectable=0;strokeColor=inherit;overflow=hidden;fillColor=none;top=0;left=0;bottom=0;right=0;pointerEvents=1;fontStyle=1" vertex="1" parent="JTAYTAqS8s9HP5UEAawi-171">
          <mxGeometry x="352" width="92" height="70" as="geometry">
            <mxRectangle width="92" height="70" as="alternateBounds" />
          </mxGeometry>
        </mxCell>
        <mxCell id="JTAYTAqS8s9HP5UEAawi-175" value="ppx" style="shape=partialRectangle;html=1;whiteSpace=wrap;connectable=0;strokeColor=inherit;overflow=hidden;fillColor=none;top=0;left=0;bottom=0;right=0;pointerEvents=1;fontStyle=1" vertex="1" parent="JTAYTAqS8s9HP5UEAawi-171">
          <mxGeometry x="444" width="107" height="70" as="geometry">
            <mxRectangle width="107" height="70" as="alternateBounds" />
          </mxGeometry>
        </mxCell>
        <mxCell id="JTAYTAqS8s9HP5UEAawi-176" value="200" style="shape=partialRectangle;html=1;whiteSpace=wrap;connectable=0;strokeColor=inherit;overflow=hidden;fillColor=none;top=0;left=0;bottom=0;right=0;pointerEvents=1;fontStyle=1" vertex="1" parent="JTAYTAqS8s9HP5UEAawi-171">
          <mxGeometry x="551" width="114" height="70" as="geometry">
            <mxRectangle width="114" height="70" as="alternateBounds" />
          </mxGeometry>
        </mxCell>
        <mxCell id="JTAYTAqS8s9HP5UEAawi-177" value="" style="shape=tableRow;horizontal=0;startSize=0;swimlaneHead=0;swimlaneBody=0;strokeColor=inherit;top=0;left=0;bottom=0;right=0;collapsible=0;dropTarget=0;fillColor=none;points=[[0,0.5],[1,0.5]];portConstraint=eastwest;" vertex="1" parent="JTAYTAqS8s9HP5UEAawi-146">
          <mxGeometry y="349" width="665" height="69" as="geometry" />
        </mxCell>
        <mxCell id="JTAYTAqS8s9HP5UEAawi-178" value="address of ppx" style="shape=partialRectangle;html=1;whiteSpace=wrap;connectable=0;strokeColor=inherit;overflow=hidden;fillColor=none;top=0;left=0;bottom=0;right=0;pointerEvents=1;fontStyle=1;fontSize=16;" vertex="1" parent="JTAYTAqS8s9HP5UEAawi-177">
          <mxGeometry width="257" height="69" as="geometry">
            <mxRectangle width="257" height="69" as="alternateBounds" />
          </mxGeometry>
        </mxCell>
        <mxCell id="JTAYTAqS8s9HP5UEAawi-179" value="n/a" style="shape=partialRectangle;html=1;whiteSpace=wrap;connectable=0;strokeColor=inherit;overflow=hidden;fillColor=none;top=0;left=0;bottom=0;right=0;pointerEvents=1;fontStyle=1" vertex="1" parent="JTAYTAqS8s9HP5UEAawi-177">
          <mxGeometry x="257" width="95" height="69" as="geometry">
            <mxRectangle width="95" height="69" as="alternateBounds" />
          </mxGeometry>
        </mxCell>
        <mxCell id="JTAYTAqS8s9HP5UEAawi-180" value="n/a" style="shape=partialRectangle;html=1;whiteSpace=wrap;connectable=0;strokeColor=inherit;overflow=hidden;fillColor=none;top=0;left=0;bottom=0;right=0;pointerEvents=1;fontStyle=1" vertex="1" parent="JTAYTAqS8s9HP5UEAawi-177">
          <mxGeometry x="352" width="92" height="69" as="geometry">
            <mxRectangle width="92" height="69" as="alternateBounds" />
          </mxGeometry>
        </mxCell>
        <mxCell id="JTAYTAqS8s9HP5UEAawi-181" value="&amp;amp;ppx" style="shape=partialRectangle;html=1;whiteSpace=wrap;connectable=0;strokeColor=inherit;overflow=hidden;fillColor=none;top=0;left=0;bottom=0;right=0;pointerEvents=1;fontStyle=1" vertex="1" parent="JTAYTAqS8s9HP5UEAawi-177">
          <mxGeometry x="444" width="107" height="69" as="geometry">
            <mxRectangle width="107" height="69" as="alternateBounds" />
          </mxGeometry>
        </mxCell>
        <mxCell id="JTAYTAqS8s9HP5UEAawi-182" value="&lt;b&gt;300&lt;/b&gt;" style="shape=partialRectangle;html=1;whiteSpace=wrap;connectable=0;strokeColor=inherit;overflow=hidden;fillColor=none;top=0;left=0;bottom=0;right=0;pointerEvents=1;" vertex="1" parent="JTAYTAqS8s9HP5UEAawi-177">
          <mxGeometry x="551" width="114" height="69" as="geometry">
            <mxRectangle width="114" height="69" as="alternateBounds" />
          </mxGeometry>
        </mxCell>
      </root>
    </mxGraphModel>
  </diagram>
</mxfile>
